<svg width="39" height="39" viewBox="0 0 39 39" fill="none" xmlns="http://www.w3.org/2000/svg">
<g clip-path="url(#clip0_5_81)">
<path fill-rule="evenodd" clip-rule="evenodd" d="M19.5 0C30.2698 0 39 8.95036 39 19.9932C39 28.8248 33.4191 36.3167 25.6756 38.9629C24.687 39.1598 24.336 38.5354 24.336 38.0031C24.336 37.344 24.3594 35.1913 24.3594 32.5159C24.3594 30.6517 23.7354 29.435 23.0354 28.8149C27.378 28.3196 31.941 26.6288 31.941 18.9497C31.941 16.7657 31.1844 14.9834 29.9325 13.5834C30.1353 13.0783 30.8041 11.0447 29.7414 8.29131C29.7414 8.29131 28.1073 7.75558 24.3847 10.3413C22.8267 9.89863 21.1575 9.67592 19.5 9.66812C17.8425 9.67592 16.1753 9.89863 14.6192 10.3413C10.8927 7.75558 9.2547 8.29131 9.2547 8.29131C8.19585 11.0447 8.8647 13.0783 9.06555 13.5834C7.8195 14.9834 7.05706 16.7657 7.05706 18.9497C7.05706 26.6093 11.6103 28.326 15.9413 28.8311C15.3836 29.3303 14.8785 30.2109 14.703 31.5037C13.5915 32.0146 10.7679 32.8988 9.02849 29.8432C9.02849 29.8432 7.99695 27.9222 6.03915 27.7818C6.03915 27.7818 4.1379 27.7565 5.90655 28.9967C5.90655 28.9967 7.1838 29.611 8.07105 31.9217C8.07105 31.9217 9.21571 35.4902 14.6406 34.2812C14.6504 35.9523 14.6679 37.5273 14.6679 38.0031C14.6679 38.5316 14.3091 39.15 13.336 38.9648C5.58674 36.3225 0 28.8267 0 19.9932C0 8.95036 8.7321 0 19.5 0Z" fill="#4D4889"/>
</g>
<defs>
<clipPath id="clip0_5_81">
<rect width="39" height="39" fill="white"/>
</clipPath>
</defs>
</svg>
