<?xml version="1.0" encoding="UTF-8"?>
<svg id="Layer_2" data-name="Layer 2" xmlns="http://www.w3.org/2000/svg" viewBox="0 0 4176 1461.9">
  <defs>
    <style>
      .cls-1 {
        fill: #f8d03f;
      }

      .cls-2 {
        fill: #c04b3d;
        stroke: #c04b3d;
        stroke-miterlimit: 2.48;
        stroke-width: .35px;
      }
    </style>
  </defs>
  <g id="Layer_5" data-name="Layer 5">
    <g id="Layer_5-2" data-name="Layer 5">
      <g id="g157">
        <g id="g57">
          <path id="path117" class="cls-2" d="M924.43,157.94c2.81-1.41,4.92-3.52,7.04-5.98,2.11-2.11,2.81-4.57,4.22-7.39,1.06-2.46,1.41-4.57,1.41-7.03-43.27-14.77-82.31-23.22-115.02-28.84,13.37,4.22,32.36,10.9,53.82,21.46,18.64,8.79,34.82,18.64,48.54,27.79h0Z"/>
          <path id="path118" class="cls-2" d="M963.47,147.04c-4.92-1.76-9.85-3.52-14.77-5.63,0,2.11-.7,4.57-1.76,6.68-1.76,4.22-3.52,7.74-6.68,11.26-1.76,2.11-3.87,3.87-5.98,5.63.7.7,1.41,1.06,2.46,1.76,18.99,14.07,38.34,25.33,61.56,43.62,3.87,3.17,7.74,6.33,11.26,9.15,8.79-2.46,16.88-8.09,22.16-15.48,4.57-7.03,6.68-14.77,7.04-23.22-22.51-11.61-47.49-23.22-75.27-34.12h0v.35Z"/>
          <path id="path119" class="cls-2" d="M1082.01,205.43c-9.85-5.98-20.75-11.96-32.01-18.29h0c-1.06,7.74-3.17,14.77-7.04,21.1-5.28,8.79-13.72,16.18-23.22,20.4,9.5,8.09,17.59,15.48,24.27,22.16,1.41,1.41,3.87,1.41,7.74.7l31.66-29.9h0c4.92-4.92,4.22-12.66-1.76-16.18h.35Z"/>
          <path id="path121" class="cls-2" d="M1172.41,601.85s2.11-1.76,9.5-10.9c4.92-5.98,10.9-13.37,19.7-20.05,3.17-2.46,8.79-6.68,16.88-10.55,30.6-15.13,24.97-3.17,57.34-13.01,9.15-2.81,17.94-6.68,26.38-11.96s15.13-11.61,21.46-18.99c8.79-10.2,15.83-21.46,21.46-33.77-8.79-16.53-17.24-29.55-25.33-41.51-12.66-19.35-29.9-43.62-53.11-71.05-1.41-1.76-4.57-2.11-6.33-.35l-83.72,81.61s-.7,1.06-1.06,1.76c-2.11,9.15-4.57,22.16-5.98,37.64-1.06,11.96-.7,20.4-1.06,30.95-1.41,44.67-2.11,78.44,3.52,79.5h0l.35.7Z"/>
          <path id="path122" class="cls-2" d="M1374.67,554.01h0c-9.15-25.33-14.42-39.4-21.1-53.82-.7-1.41-1.41-2.81-2.11-4.22-.7,1.41-1.41,2.46-2.11,3.87-10.9,18.99-25.68,36.58-44.67,47.84-16.53,9.5-35.88,14.77-54.87,15.83,2.11,8.09,1.76,18.29,1.41,22.86-1.06,21.46-21.81,135.07-26.38,152.66.35.35.7,1.06,1.06,1.41,5.98,13.72,19.35,22.86,32.71,28.49,7.74,3.17,15.48,5.98,23.57,7.74,8.09,1.76,16.18,2.81,24.27,3.17,14.77.7,28.49,0,42.56-3.52,19.35-4.22,40.8-12.31,55.58-26.38,1.41-59.45-5.28-128.39-29.9-195.92h0Z"/>
          <path id="path123" class="cls-2" d="M385.2,1298.31c.7-6.33,1.76-12.31,2.81-18.29,7.74-43.27,23.22-86.18,53.11-119.24-5.28-3.87-9.85-7.74-20.4-15.48-15.13,11.61-27.08,25.68-49.6,7.39-15.13,14.77-33.77,30.6-49.6,45.38-11.61,10.9-29.2,29.2-40.8,39.75,22.86,16.53,34.12,25.68,54.17,35.88,22.16,12.31,34.47,19.35,49.95,26.38v-2.11h0l.35.35Z"/>
          <path class="cls-2" d="M974.38,1328.92c-2.81,1.06-5.63,2.11-8.79,3.17-96.03,33.42-176.23,36.93-223.36,38.34-130.15,4.22-229.69-21.81-264.87-32.71-37.99-14.42-60.5-23.22-77.03-30.25,2.46-39.75,15.83-78.79,36.93-112.21,3.17-4.57,6.33-8.79,9.85-13.01,3.17-3.17,6.33-6.68,8.79-10.55,1.06.7,2.11,1.41,3.17,2.11,12.19,8.44,26.26,18.41,42.21,29.9l-30.25,44.32,174.12,11.61,42.56-153.36c31.66,8.79,60.15,8.79,93.21,2.11,26.38-8.09,49.95-15.48,71.76-22.16-2.81,11.61-5.63,23.22-7.04,35.17-2.81,22.86,1.06,46.78,7.39,68.94,3.52,10.9,7.39,21.81,12.31,32.36,4.57,9.85,9.5,19.7,15.48,29.2,11.96,19.7,26.73,38.34,45.38,52.41,11.26,8.44,23.92,14.42,36.93,19.35,3.52,1.76,7.39,3.87,11.26,5.28Z"/>
          <path id="path125" class="cls-2" d="M1244.52,1079.53c-37.99-5.28-71.05-26.03-96.73-53.82-12.66-13.72-23.22-29.2-30.6-46.43-3.87-8.79-7.04-17.94-9.5-27.44,0-.7-.35-1.76-.7-2.46-20.05,20.75-44.32,41.86-72.81,61.91-34.47,24.27-82.31,42.56-163.21,68.59-2.46,4.22-3.87,8.79-5.63,13.37-20.05,53.82,1.06,131.91,65.43,193.81,20.4,20.4,37.64,26.73,64.37,33.42,52.76-21.46,106.58-52.76,166.38-98.49,30.6-23.57,87.59-71.76,139.29-145.62-18.29,4.57-37.64,5.63-56.63,3.17h.35Z"/>
          <path id="path126" class="cls-2" d="M1388.03,775.26c-27.44,13.72-59.09,18.99-89.7,16.18-17.59-1.76-34.47-6.33-50.3-14.07-10.9-5.28-21.1-12.66-28.14-22.51-11.26,36.93-22.86,66.13-30.6,81.25-12.66,24.62-35.53,62.96-72.46,103.41,3.17,13.72,7.04,27.44,13.37,40.1,7.74,15.83,17.94,30.25,30.6,42.91,12.66,12.66,27.08,24.27,43.27,32.36,31.31,16.18,67.54,18.29,100.95,8.44,1.76-.7,3.52,0,4.57.7,26.38-39.75,50.65-86.53,68.59-140.35,0,0,22.16-66.48,26.38-157.94-4.92,3.52-10.2,6.68-15.83,9.5h-.7Z"/>
          <path id="path129" class="cls-2" d="M590.27,733.05h1.06c-1.41-1.41-2.81-3.17-3.87-4.57-.35.35-.7,1.06-1.41,1.41.35,0,1.06.7,1.41.7h.35c.7.35,1.41,1.06,2.46,1.41h0v1.06Z"/>
          <path class="cls-2" d="M562.13,1060.53c16.88-25.33,37.64-53.11,62.26-81.25,5.28-5.63,27.44-30.95,60.5-61.56,13.37-12.66,26.38-23.92,38.34-33.77-.35-.7-.35-1.06-.7-1.41-1.06-3.52-1.76-7.39-2.81-11.26-1.06-4.22-3.17-8.09-4.57-11.96-1.41-3.87-3.87-7.39-5.98-11.26-3.87-5.98-6.68-12.31-10.9-18.29-3.87-5.63-7.74-10.9-12.66-15.48-10.9-10.2-22.51-19.7-34.47-28.14-12.31-8.79-23.92-17.94-36.58-26.03-11.61-7.39-24.27-13.37-36.23-20.4-3.87,4.22-7.74,8.79-11.26,13.01-18.64,21.1-41.51,43.97-68.59,66.48-48.19,40.1-95.32,67.89-134.72,86.88-2.46,7.39-5.28,15.83-7.74,23.57-2.46,7.74-4.92,15.83-7.74,23.57-36.58-27.79-73.52-55.58-110.1-83.36l56.98-107.99-149.14,84.07,35.53,111.15,16.53-14.77c13.72,10.9,27.44,21.81,41.15,32.36,21.1,16.53,42.21,33.06,63.31,48.89-5.63,10.2-11.26,20.75-16.88,30.95,3.52,4.22,7.39,8.44,10.9,12.66-71.76,73.16-143.87,146.33-215.62,219.49-1.76,0-33.77,3.17-46.78,29.2-11.61,23.57,1.41,48.19,14.07,60.85,14.77,14.77,43.27,27.44,68.94,15.13,19.7-9.5,31.66-30.95,29.9-54.17,75.98-70.7,151.6-141.4,227.58-212.46,10.55,8.09,7.74,6.33,17.94,13.72,13.37-7.39,22.51-11.96,35.88-19.7,12.31,10.2,25.68,21.81,38.69,32.36,18.29,15.48,35.88,28.84,52.76,40.45-3.17,5.63-6.33,11.26-9.85,17.24-4.22,6.33-8.09,12.66-11.96,18.64,42.91,3.17,85.83,5.98,128.74,9.15,17.94-55.93,35.88-112.21,53.47-168.14-4.22,3.52-42.21,37.64-46.78,41.51-2.46,2.46-34.12,30.6-36.93,33.06-29.9-22.51-59.8-45.02-89.7-67.54.35,0,21.1-5.98,21.1-5.98.7,0,33.42-9.15,34.12-9.5ZM442.88,1022.89l-11.96-10.9-11.61-10.9c43.27-45.02,86.53-90.05,129.8-135.07,15.13-3.17,30.25-5.98,45.38-9.15-1.41,13.37-2.81,27.08-3.87,40.45-49.24,41.86-98.49,83.72-147.73,125.57Z"/>
          <path class="cls-2" d="M560.72,386.58s-1.06-.7-1.41-1.41l-1.06-1.06s-.35-2.11,0-2.11,1.41,2.11,2.46,4.57Z"/>
          <path id="path148" class="cls-2" d="M634.59,1096.76c-11.96,9.15-24.27,18.64-36.23,27.79-23.22-15.13-46.43-30.25-69.29-45.73l14.07-1.76c10.55-2.46,20.75-4.92,31.31-7.74,15.83,7.04,31.66,14.07,47.13,21.1h0c2.11.7,3.52,1.41,5.28,2.46h0c2.46,1.06,5.28,2.46,7.74,3.52h0v.35Z"/>
          <path id="path150" class="cls-2" d="M889.6,866.72h-1.06v-.35c-7.39-1.76-28.49-2.11-45.38-9.5-20.75-9.15-34.12-21.46-40.8-28.84-7.74-10.2-16.53-23.57-23.92-40.1-9.85-22.16-9.85-53.11-15.83-56.98-5.98-3.87-22.16,1.76-38.69-2.46-18.64-4.57-31.31-13.37-37.99-18.29-10.55-15.83-21.81-34.82-32.01-57.34-33.42-74.22-27.08-125.93-69.65-217.03-2.11-4.57-5.28-8.79-7.74-13.37-4.92-8.44-10.9-15.83-17.94-22.86-23.22-21.1-49.6-15.48-77.03-7.74-16.53,5.98-30.95,16.53-43.62,28.84-13.01,12.66-22.86,28.14-29.55,45.02-14.42,27.08-36.93,91.81,31.66,158.64,8.09,8.44,17.24,16.88,26.73,25.68,40.1,37.29,161.45,103.06,199.79,134.72,24.62,15.13,50.65,55.58,51.71,57.69,8.79,16.18,13.01,34.47,14.42,52.76h0c0,19.35-4.92,39.4-2.46,39.75,2.81,0,162.86-63.67,160.4-66.83l-1.41-.7h0l.35-.7Z"/>
          <path id="path151" class="cls-2" d="M1193.16,119.95l-315.17,343.66,6.68,22.51h0c13.72,27.79,30.6,58.04,51.36,89.7,4.22,5.98,8.09,11.96,11.96,17.94h0c5.63,6.68,13.72,11.61,21.46,15.13,3.87,1.76,7.74,3.52,11.61,4.92,2.11.7,4.22,1.41,6.68,2.11l352.8-358.08,13.72-163.56-161.45,25.68h.35Z"/>
          <path id="path152" class="cls-2" d="M558.26,382.01s-.35,1.06,0,2.11l1.06,1.06s1.06,1.06,1.41,1.41c-1.06-2.46-2.11-4.57-2.46-4.57Z"/>
          <path class="cls-2" d="M832.62,361.25h.35c-3.17-11.26-6.68-22.51-10.2-33.77-29.9-91.81-100.6-164.62-125.93-188.54-17.59-16.18-48.54-45.38-97.43-72.81-71.41-40.1-147.03-57.34-152.66-47.84-3.87,7.39,35.17,22.86,56.28,66.83,8.09,16.88,11.26,42.56,12.31,51.36,0,1.41-1.41,2.11-2.81,1.76-13.72-5.98-71.05-30.25-111.86-40.45-38.69-9.5-102.71-20.4-102.71-16.88,0,3.87,32.36,40.45,43.27,74.92,4.92,15.83,7.39,39.75,8.44,46.78,0,1.06-1.06,1.76-2.11,1.41-10.55-2.81-56.63-14.77-88.29-18.64-26.38-2.81-66.83-2.46-78.44-2.46-1.41,0-2.11,1.41-1.41,2.46,7.03,7.39,28.84,30.95,39.75,52.06,8.44,15.83,13.01,30.25,15.83,42.56C106.61,380.25,26.76,538.53,2.84,697.17c-.35,3.52-.7,9.15-1.41,16.18-2.11,23.57-14.42,213.16,116.78,384.46,21.46,29.2,31.66,30.25,62.61,60.5l80.9-85.83c-16.53-19.35,2.81-30.25,14.77-43.97-17.59-15.83-36.23-31.31-55.58-47.13-6.68-5.28-13.01-10.55-19.35-15.48-9.15,9.85-16.88,20.75-26.73,29.55l-54.52-164.97,205.77-105.52c-4.92,15.48-13.37,36.23-24.62,63.67-13.37,32.36-26.73,58.39-36.23,75.98,24.27,19.7,48.54,39.75,73.16,59.45,2.46-20.4,4.57-38.69,4.22-47.49,3.52-1.41,8.79-3.17,16.18-.35-2.46-5.98-5.28-14.77-7.03-25.68-1.41-10.2-4.57-35.88,8.44-70.35,24.62-67.18,77.38-86.18,70.35-128.74-10.9-24.97-11.61-23.22-39.4-64.72-8.09-18.64-19.7-46.78-12.66-80.9,35.53-128.74,131.91-145.98,167.43-129.09h.35c3.87,1.76,7.74,4.22,11.96,7.39-.35-1.06-.35-2.11,0-2.11s1.41,2.11,2.46,4.57c34.47,33.42,71.41,130.85,79.85,161.45.7-4.92,1.41-9.85,2.11-14.42,1.76-12.31,4.92-24.27,9.15-36.23,9.85-26.38,35.17-86.53,143.51-81.25,13.72,0,26.73,5.28,39.4,10.2,5.28,2.11,10.2,4.92,15.13,8.09-9.5-35.17-8.79-44.32-17.24-73.16ZM683.83,429.49c-6.33-44.32-19.7-93.21-35.17-125.93,46.43,40.45,70.35,74.57,35.17,125.93Z"/>
          <path id="path153" class="cls-2" d="M1085.18,695.06v-1.76l-1.76-1.76c-.35,1.06-10.2-1.41-15.48-2.11-27.79-3.52-57.34-8.44-80.55-24.97-.7-7.74,1.41-14.07,0-24.62,0-3.87-2.46-5.63-5.28-7.39h0c-56.28-20.05-83.01-70-99.9-105.52-12.31-26.03-20.4-50.65-26.38-71.41-2.11-1.41-3.87-3.52-5.98-4.92-15.48-11.96-34.12-16.53-52.76-20.75-43.97-7.39-90.75,7.03-117.84,43.27-9.15,15.13-15.83,43.27-23.57,85.48,3.87-.7,8.09-1.41,11.96-2.11,28.49-4.22,51.36,4.92,72.81,13.72,18.99,7.74,48.89,22.51,79.14,49.95,7.74,14.42,15.83,30.95,22.86,50.3,7.04,19.35,11.61,51,15.48,53.11,4.22,1.76,24.62-9.85,48.19-5.28,23.22,4.22,36.93,17.24,41.15,21.46,6.33,8.79,14.07,21.46,19.35,37.99,7.04,21.81,3.17,50.65,5.98,53.11,12.66,9.85,52.41-14.07,77.03-43.62,28.84-34.47,36.23-79.14,35.88-91.81h0l-.35-.35ZM1039.8,756.27c-1.06-3.87-3.17-7.04-5.28-10.2-1.06-1.76,1.76-3.17,2.81-1.41,2.46,3.52,4.57,7.04,5.63,10.9.35,2.11-2.46,2.81-3.17.7h0Z"/>
        </g>
      </g>
      <g id="Layer_8" data-name="Layer 8">
        <path class="cls-1" d="M1033.82,857.57s-2.46,0-3.52.35h-3.52c-10.2,2.11-19.7,6.68-30.25,5.98-6.68-.7-12.66-3.52-17.59-7.74-.7-.35-1.41-1.06-2.11-1.76-.35-.35-1.06-1.06-1.41-1.06s-.35-.35-.35-.35q-.35,0-.7-.7h.35s-1.76-3.17-2.46-4.57c-3.87-9.85-4.22-21.1-5.63-31.66-1.41-11.96-4.57-24.27-10.55-34.47,0-.35-.35-1.06-.35-1.41-1.76-7.04-4.22-13.72-7.74-20.05-2.46-3.87-5.28-7.39-8.79-10.2-1.76-2.46-4.22-4.92-6.68-7.04-3.87-2.81-9.15-4.57-14.07-5.98-4.92-1.41-9.85-3.17-15.13-3.87-3.52-.35-7.04-.7-10.2-.7h-.7c-4.57-.7-9.15-1.41-14.07-1.41h-1.41c-8.79-.7-17.94-.35-26.73,1.76-.35,0-1.06,0-1.41.35h0s-.7-.7-1.06-1.41v-1.06c0-.35,0-1.06.35-1.41.35-.35.35-2.81,0-3.52v-2.81c-7.04-21.1-14.42-41.86-23.22-62.26-3.87-9.5-8.09-18.64-14.42-26.73,0-.7-.35-1.06-1.06-1.41h-.35v-.7h0s0-.7-.35-.7c-.23,0-.35-.23-.35-.7,0-.7-.35-.7-.7-1.06h0l-.35-.7h0v-1.06h-.35s-.35-1.06-.7-1.41-.7-.7-1.06-1.06-.7-.7-1.06-1.06c-.7-.7-1.06-1.06-1.76-1.76-.35,0-.7-.7-1.41-1.06,0-.35,0-.7-.7-.7h-.35s-2.46-2.46-3.87-3.52c-.7-.7-1.41-1.06-2.11-1.76-1.06-.7-2.46-1.41-3.52-2.11-1.76-1.06-3.52-2.11-5.28-3.17-1.06-.7-2.46-1.41-3.17-2.11h-.35s-3.52-2.11-5.28-3.17c-1.76-1.06-2.81-1.76-4.92-2.81-2.11-1.41-4.57-2.81-6.68-3.87-.35,0-.7-.7-1.41-.7-2.81-1.76-6.33-3.52-9.15-5.28h-.35s-2.46-1.76-3.87-2.46c-.7,0-1.41-.7-2.11-1.06-1.76-.7-2.46-1.06-4.22-2.11-1.41-.7-2.46-1.06-3.52-1.41-.7-.35-1.06-.7-1.76-1.06-1.76-1.06-3.87-1.76-5.63-2.46-1.76-.7-3.17-1.41-4.22-1.76-1.41-.7-3.52-1.41-6.33-2.46-.7-.35-1.41-.35-2.11-.7-.47-.23-.59-.35-.35-.35h0s-1.06-.35-1.76-.7c0,0-.7-.35-1.06-.35-.35-.35-.7-.35-1.41-.7-.7-.35-1.06-.35-1.76-.35-.35-.35-1.06-.35-1.41-.35-.7,0-1.41,0-2.11-.7-1.41-.35-2.81-.7-4.22-1.06-1.06-.35-2.11-.7-2.81-1.06s-1.41-.35-2.11-.35c-1.06-.35-1.76-.35-2.11-.35-1.06-.35-1.41-.35-2.11-.7h-2.81c-1.06-.35-1.76-.35-2.46-.35-.7-.35-1.06-.35-1.41-.35s-.7-.35-1.06,0c-1.06-.35-2.11-.35-2.81-.35s-1.41-.35-2.11-.35h-.7s-1.41-.35-2.46-.35c-.7,0-1.06-.35-1.76-.35h-18.29c-2.81-.7-8.79,0-14.07,1.41-3.87,1.06-4.92,1.76-5.28,2.46-.7,1.06-.7,2.11-.7,2.81,0,7.39,1.76,12.31,1.76,12.31,6.68,36.23,20.4,70.7,40.45,101.66,0,.35.35,1.06.7,1.41.35,0,.35.35.35.35.7,1.06,1.41,2.11,2.11,2.81.35,1.06.7,1.76,1.41,2.46.35.35.35.7.7,1.06.23.23.47.35.7.35.35,0,.7.7,1.41,1.41l1.06,1.06s.7.7.7,1.06c.7.35,1.06.7,1.41,1.41.35,0,.35.35.7.35,1.41,1.06,2.81,2.11,4.22,2.81,10.2,5.63,21.81,9.5,33.06,10.9,4.22.7,8.79,1.06,13.37,1.41,1.76,0,3.17.35,4.57.35,2.81.35,5.98.7,8.79,1.41,2.11,0,3.87,1.06,5.98,1.76,0,0,0,.35.35.35.7.7,1.41,1.76,1.76,2.46,2.46,3.52,3.17,7.74,3.87,11.61v1.76c.35.7.7,1.41,1.06,2.11.35,1.06.35,2.46.7,3.52v.7c1.41,5.98,2.46,11.96,4.22,17.94,0,1.41,0,2.81,1.06,3.87.35,1.41.7,2.81,1.06,4.22,0,0,0,.7.35,1.06.7,2.81,1.76,5.98,2.81,8.79h.35s0,.35.35.7h0s.7,2.46,1.06,3.52c.35.35.7,1.06.7,1.41h0c1.76,3.87,3.52,7.74,5.98,11.26.7,1.06,1.41,2.11,2.46,3.17.35.35.7,1.06.7,1.41h.35s.35.7.35,1.06c.7,1.41,1.76,2.46,2.46,3.52.47.7.7.94.7.7,1.76,2.11,3.17,4.22,5.28,5.98h0s2.11,2.46,3.17,3.87c5.28,5.98,10.9,11.61,17.94,16.18,4.22,3.17,8.79,5.63,13.72,7.74,2.81,1.41,5.63,2.46,8.44,3.52,3.87,1.41,8.09,2.46,12.31,3.52,1.41.35,2.81.7,4.22.7,3.52.7,7.04,1.06,10.55,1.41.7,0,1.06,0,1.76.35,4.57.7,9.15,1.76,13.01,3.52,1.41.35,2.81,1.06,4.22,1.76,1.76.35,3.17,1.06,4.57,1.76.7.35,1.41,1.06,2.11,1.41,2.81,1.41,5.28,2.81,7.74,4.57,2.11,1.06,3.87,2.46,5.63,3.87,2.46,1.41,4.22,3.52,6.33,5.63l1.06,1.06s-.35-1.06-.35-1.76c1.06,1.06,1.76,2.46,2.11,3.52l-1.76-1.76s.35.7.35,1.06v1.41c.35,1.76.7,3.17.7,4.92,0,2.46.35,4.57.7,7.04.35,2.81.35,5.28.7,8.09.35,2.11.7,5.63,1.06,8.44,0,3.17,1.06,6.33,2.11,9.5.7,2.46,1.41,4.92,2.46,7.39,1.76,4.92,4.57,9.15,7.39,13.37,1.41,1.76,2.81,3.87,4.57,5.63,4.57,4.57,9.5,8.09,14.77,11.96,1.76,1.41,3.87,2.46,5.63,4.57,1.41,1.76,2.46,4.22,3.17,6.68,0,0,.35,0,.35.7v23.92c.35,1.06.35,2.11.35,3.17,0,.7.35,1.41.35,2.11,2.46,19.7,14.07,38.34,28.49,52.06,18.29,17.24,40.8,28.49,63.31,39.4-6.68-9.85-11.26-20.75-14.07-32.36-1.76-8.44-2.46-17.94,2.81-24.62,5.28-6.68,13.72-7.74,22.16-5.63,6.33,6.33,13.01,12.66,19.7,18.29h.35c4.92,4.92,9.85,9.5,14.77,13.72h0c1.06,1.76,2.11,2.81,3.17,3.87,4.92,8.79,11.61,16.88,19.7,22.51,5.98,4.22,12.66,7.04,20.05,8.44,32.71,24.27,67.54,45.73,102.36,66.48,8.79,5.63,18.29,11.26,28.49,14.07,7.39,3.87,15.13,6.33,23.22,7.74h.7c17.24,5.28,35.88,6.33,53.82,5.28,9.85-.7,20.05-1.76,29.55.35,20.4,4.22,35.88,20.4,55.22,28.14,23.22,9.15,49.6,4.57,74.22-.7h6.33c22.51-.35,45.02-.7,67.54-1.06,21.81-.35,43.62-1.06,64.02-8.79,13.72-5.28,26.38-13.37,39.75-20.05,13.37-6.33,28.49-11.26,42.91-8.79,1.06,0,1.76.35,2.81.35.35,0,.7.35,1.06.35,36.58,15.13,79.5,12.66,118.89,4.22,47.49-10.2,92.86-28.84,141.05-33.77,7.04-.7,14.42-1.41,21.81-2.46,29.2.7,58.04,7.39,87.23,9.85,48.54,4.57,97.08-2.11,144.92-8.44.35,0,1.06,0,1.41-.35,10.9.35,21.81-.7,32.71.7,22.86,2.11,43.62,14.07,65.78,20.05,56.63,15.13,119.95-5.63,172.71,17.59.7.35,1.76.7,2.46,1.06,2.11,1.06,4.22,1.76,6.33,2.46,4.57,2.11,9.15,3.87,13.72,5.63,23.22,8.79,47.49,15.83,72.11,15.83,27.44.35,54.17-7.74,81.61-8.44,5.98-.35,11.96,0,17.94-.35,1.76,0,3.87.35,5.98.7,14.77,2.81,28.14,11.26,41.51,18.64,30.6,17.24,64.02,30.6,98.84,32.71,20.4,1.06,41.86-1.41,60.15,7.39,1.76.7,3.17,1.41,4.92,2.46,3.52,2.46,7.03,4.92,10.55,7.04,50.65,33.06,103.41,66.83,163.21,73.16,4.57.35,9.15.7,13.01,2.81,8.44,4.22,12.66,14.77,19.7,20.75h.7c4.92,6.68,10.9,13.01,17.59,17.94,9.15,7.04,19.7,13.01,30.6,16.18.7.7,1.41.7,2.46,1.06,50.3,17.59,100.6,34.82,152.31,47.49,3.52.7,6.68,1.41,10.2,2.11,3.52.7,7.03,1.41,10.55,2.11h.35c8.79,2.11,17.59,3.52,26.38,4.22,15.83,1.41,32.36.35,47.49-3.52.35,0,.7-.35.7-.35h.35s2.46,0,3.52-.35c.7,0,1.41,0,1.76-.35,3.52-1.06,6.68-1.76,9.85-3.17,1.41,0,2.46-1.06,3.52-1.76,3.17-1.06,6.33-2.46,9.15-4.22,1.41-1.06,2.81-2.11,4.22-3.52.7-.35,1.06-.7,1.76-1.41h1.41l.7-.7h.35v-.7s0-.35.35-.7c.23-.23.47-.35.7-.35h.35s0-.35.35-.35h.7v-.35c.35-.35.7-.7.7-1.06h.7s3.87-2.81,5.63-3.87c1.41-.35,2.46-1.06,3.87-1.41h0l.35-.35c15.13-4.57,30.25-10.55,45.38-6.33,2.11.7,4.57,1.41,7.03,1.76,1.64.23,1.88.35.7.35l13.01,5.98c21.1,9.5,43.27,17.59,65.78,23.57,1.06,0,2.11,1.06,3.17,1.41,34.12,14.42,73.52,15.83,108.69,4.22,35.17-11.96,65.78-36.93,84.42-69.29-13.37,1.41-23.57,12.66-35.53,18.64-1.76,1.06-3.52,1.76-5.63,2.11-2.11.7-3.87,1.06-5.98,1.41-10.2,1.41-20.75-1.06-30.95-3.87-8.09-2.11-16.18-4.22-24.27-6.33h-.35c-3.17-1.76-6.33-3.52-9.5-5.28-11.61-7.04-22.51-15.48-34.47-21.81-2.11-1.06-4.22-2.11-6.68-3.17,15.83-15.48,39.75-23.57,62.26-25.33,28.84-2.81,58.04,1.76,86.88-.7,43.97-3.87,85.83-24.27,116.08-56.28,8.79-9.15,16.88-20.05,20.05-32.36,4.57-16.53,0-35.53,9.15-50.3-21.81,14.42-44.32,28.84-69.65,33.06-20.75,3.52-42.56,0-62.61,7.04-5.28-21.46,8.44-43.27,26.03-56.28,11.96-8.44,23.57-14.07,37.64-19.7h1.76c5.98.7,11.96.35,17.94-.7,21.46-3.87,40.1-18.29,54.87-34.47,15.13-16.18,27.08-34.82,41.86-51,23.92-26.38,54.52-46.78,77.74-73.87,9.5-11.26,17.59-23.57,22.51-37.64,4.22-13.01,5.63-27.08,6.68-40.8,2.81-29.2,6.68-58.04,11.26-86.88,8.09-52.41,20.4-107.28,56.28-146.33-23.57.35-46.08,11.26-64.02,26.38s-31.66,34.12-44.32,53.82c-5.63,8.44-10.9,17.24-18.64,23.22-8.09,5.98-19.35,9.15-28.14,4.57-13.72-7.04-14.42-26.03-13.37-41.15.7-7.04,1.06-13.72,1.41-20.75.35-.7.35-1.76.35-2.46,3.52-14.07,7.74-27.79,11.96-41.51,14.07-47.84,23.57-99.19,8.79-146.68-12.66-41.51-42.91-79.85-36.93-122.76,1.76-14.77,8.09-28.49,14.42-41.86-47.49,16.18-85.48,57.34-98.14,105.88-2.11,8.09-5.98,17.94-14.07,17.94-2.81,0-5.28-1.41-7.39-2.81-21.46-13.72-28.84-41.15-42.21-62.61-1.76-2.81-3.87-5.63-6.68-7.03-5.28-2.11-10.9.7-15.13,4.22-17.59,14.42-26.03,37.99-42.91,53.11-4.22,4.22-10.9,8.09-16.53,5.28-2.81-1.76-4.92-4.92-6.33-7.74-12.31-25.33-13.37-55.22-8.09-82.66,5.28-27.79,16.53-54.17,27.44-79.85-47.49,13.37-71.05,65.78-108.69,98.14-7.03,6.33-15.13,11.96-24.27,12.66h-3.52c-6.33-2.11-12.66-3.52-18.99-4.22-9.5-1.41-19.35-1.76-28.84-4.22-9.5-2.46-18.64-7.03-23.92-15.13-5.28-8.44-5.28-20.4,1.76-27.08-11.61-3.17-23.92,2.11-34.12,8.44-10.2,6.68-19.7,14.77-31.66,17.59-10.55,2.81-21.81,1.06-33.06,2.46-3.87,0-7.74,1.41-11.61,2.81-3.17-3.17-6.68-5.63-9.5-8.79-8.44-9.85-9.15-25.68-1.76-36.23-9.15,1.06-18.29,2.46-26.03,7.03-11.96,6.68-18.99,20.05-29.2,28.84-1.76,1.41-3.52,2.81-5.28,4.22-.35,0-.7,0-1.06.7h-.35c-4.57,2.11-8.79,4.22-13.01,7.03-6.68,4.92-12.66,11.26-15.48,18.99-.7-9.15-1.06-18.29.35-27.08.35-.7.35-1.06.35-1.76,3.52-9.5,7.74-18.99,9.15-28.84,1.41-9.5.35-19.35,0-29.2-1.76-33.42,7.03-66.48,13.72-99.55,1.41-7.39,2.46-15.13,1.41-22.51s-4.92-14.77-11.96-18.29c-3.17,6.33-9.15,14.07-15.83,11.61-2.11-.7-3.87-2.46-5.28-3.87-8.44-9.85-11.26-23.92-7.39-36.23-11.96-.7-22.51,7.03-30.95,15.48-8.09,8.79-15.48,18.64-25.68,24.62-10.2,5.98-24.97,6.68-32.71-2.46-1.06-1.41-1.76-2.81-2.81-4.22-1.06-6.33-1.76-13.01-4.22-18.99-4.22-10.55-12.66-18.64-17.94-28.49-4.57-8.44-7.03-17.94-9.15-27.08-6.68-27.79-13.72-57.34-4.57-84.42-25.68,11.96-46.43,34.47-56.98,60.85-3.17-4.92-7.74-8.79-13.01-11.61-4.22-3.87-8.79-7.03-13.37-9.85-1.06-.7-2.11-1.41-3.17-1.41-1.41,0-2.46,1.76-3.52,2.81-2.46,3.17-4.57,6.33-6.68,9.5,0,0-.7.35-.7.7-3.87,2.46-5.98,5.63-8.79,9.5-5.28,6.68-10.9,12.66-16.88,18.64l-.7.7c-2.11,2.11-3.87,3.87-5.98,5.63-.7.35-1.06.7-1.76,1.06-33.42,18.64-62.96,44.32-86.53,74.57-15.71,20.17-15.95,20.4-.7.7-5.63,4.57-10.9,9.15-16.53,13.72-8.79,7.74-18.29,15.48-29.55,18.99-26.03,8.79-53.47-6.68-74.22-24.62-13.84-11.96-13.95-12.08-.35-.35,20.4,17.59-.35-.35-.7-.7-5.63-8.09-14.07-14.42-23.22-18.64-6.68-2.81-14.07-4.92-18.64-10.2,1.76,5.28,1.41,11.26-1.41,16.18-.7,1.41-1.41,2.46-2.11,3.52-1.06,1.41-2.11,2.81-3.87,3.87-.7.35-1.06.35-1.41.35-11.61,3.17-17.24-26.38-30.25-22.51-7.03,2.46-8.09,14.07-15.48,15.83-5.63,1.41-10.55-4.92-11.61-10.9-.7-5.98,1.06-11.96,0-17.94-2.46-13.37-15.48-19.7-29.55-25.68-1.41-2.11-3.17-3.52-4.92-5.28-4.57-4.22-10.55-6.68-15.83-10.2-5.28-3.87-9.85-8.79-10.2-15.13,0-2.11-.35-5.28-2.46-5.28-9.5,8.79-17.59,18.99-26.38,28.14-46.78,25.33-109.39,22.51-151.96-10.55-4.92-3.52-8.79-7.03-14.07-9.85h-.35l-.35-.35c-14.07-22.51-23.92-47.84-28.84-74.22-1.06-7.03-2.11-14.07,0-21.1-14.77,1.06-24.62,15.13-30.25,28.49-6.68,15.48-10.55,31.66-17.24,47.49-6.33,15.48-15.83,30.6-29.9,39.4-2.81,1.76-5.63,3.52-8.44,4.22-7.03,2.46-14.77,2.46-21.81-.35-.7-.35-1.41-.7-2.11-.7,0-.35-.35-.35-.7-.7-1.06-.7-2.46-1.41-3.52-2.46h-.35c-2.81-2.81-5.28-6.33-7.03-10.2-7.39-13.72-8.09-30.25-7.74-46.08.35-18.64,2.11-37.64,4.92-56.28,1.76-11.61,4.57-24.27,13.37-32.01,2.81-2.46,6.68-5.28,5.63-8.79h0c-25.33-5.63-51.36,6.33-72.11,22.16-20.75,15.48-38.34,35.17-60.5,48.19-11.96,7.39-24.62,12.31-36.58,18.99-67.18,36.58-104.47,111.5-166.38,156.53-13.01,9.15-29.2,17.24-43.97,10.9-5.63-2.46-9.85-6.68-13.01-11.61-.35-1.06-.35-1.76-.7-2.81-1.76-8.09-1.76-16.18-1.41-24.62,0-12.66.7-24.97,1.06-37.29.35-6.68,1.06-13.01,1.41-19.35,0-2.81-.7-6.33-3.17-6.33h-.35s-1.41.35-1.76,1.06v-.7s-3.52,1.76-4.92,2.81c-2.11,1.06-4.22,2.46-5.98,3.87-11.61,8.44-21.1,18.99-30.6,29.55-32.71,37.64-62.96,77.38-91.1,118.54-14.07,20.75-27.79,42.91-36.23,66.48h-.35c-16.88,27.44-21.46,60.5-19.7,92.16,1.76,35.17,10.2,69.29,14.07,104.12.7,5.28,1.06,11.26-2.46,15.13-3.87,4.22-9.85,4.57-14.77,6.68-16.88,8.09-16.18,35.17-32.71,43.97-14.07,7.74-32.01-4.57-36.58-20.05-4.57-15.48.7-31.66,5.63-47.13-16.88,15.13-33.42,30.6-49.95,45.73-15.48,13.72-32.36,32.36-27.44,52.76,2.11,9.15,8.79,16.88,13.01,25.33,11.61,24.97.35,56.28-21.1,73.52-21.46,17.24-50.65,22.16-78.09,20.05-11.61-.7-24.62-2.46-34.82,3.87-21.81,14.42-7.74,51.36-22.86,72.81-8.09,11.96-23.57,16.53-37.99,17.59-14.77.7-29.2-.7-43.62,2.46-11.26,2.46-18.29,7.04-29.55,15.83-1.76,1.41-2.46,1.76-5.63,3.87-1.41,1.06-2.81,2.11-4.22,3.17-5.63,3.87-10.9,8.44-15.83,13.37-11.61,7.04-22.16,15.83-34.12,22.51-4.22,2.11-8.44,4.22-13.01,5.63,3.52-9.85,6.33-20.05,9.15-30.25,4.57-17.94,8.79-36.58,19.35-52.06,10.55-15.48,29.9-26.38,47.84-20.4-11.26-5.63-23.22-9.5-35.53-11.61-.7,0-1.41-.35-2.11-.35-12.66-1.76-24.97-2.11-37.64-1.06-1.76,0-3.87,0-5.63.35-1.76-.35-3.17,0-4.92,0-3.87.7-8.09,1.06-11.96,1.76-1.76.35-3.52.7-5.28.7-2.81.35-6.68,1.06-9.5,1.76-6.68,1.41-13.01,3.17-19.35,5.28h-1.06c-3.17.7-5.98,1.76-8.79,3.17h-.35c-2.11.7-3.52,1.41-5.28,2.11h-.7c-2.46.7-4.57,1.76-6.68,2.46-18.29,7.04-34.82,17.94-48.54,31.66.7-4.22.35-8.44.7-12.66,1.06-10.2,5.98-20.4,13.72-27.08,7.74-7.04,17.94-10.9,28.49-10.9-22.86-2.11-47.49-1.41-66.83,11.26-14.42,9.5-24.62,24.27-36.23,37.29-5.63,5.98-12.31,11.61-19.35,15.83-5.98,2.81-12.31,4.57-18.64,4.92-9.15,0-19.35-2.46-23.92-10.55-3.87-5.98-3.17-14.07-5.98-20.75-3.17-7.39-9.85-11.61-17.59-13.37h0s0-.35-.7-.35h-1.06l-.7-.7s0-.35-.35-.35h-6.68s-1.41,0-2.11.35h-.35M3357.48,414.72c.7-5.28,1.76-9.15,2.81-7.03-.7,2.46-1.76,4.92-2.11,7.74,0,0-.7-.7-.7-.7Z"/>
      </g>
    </g>
    <g id="Layer_10" data-name="Layer 10">
      <path class="cls-2" d="M2601.22,250.45v4.22c0,8.09-1.06,15.83-1.76,23.92-1.06,5.98-2.11,13.37-3.17,19.35,0,.7-.35,1.76,0,2.46-.7,2.11-.7,4.22-1.06,5.63h0c-.7,4.57-1.76,8.44-2.46,12.31-.7,3.17-1.06,6.33-1.41,9.5-1.41,8.79-2.81,17.24-4.92,25.68-1.41,6.33-2.81,12.66-3.87,18.99-1.41,6.68-3.87,13.37-5.28,20.4-1.76,5.98-3.17,11.96-4.92,17.59-1.76,7.74-3.87,15.48-5.98,22.86-2.11,8.44-4.22,16.88-6.33,24.97-2.11,7.39-4.22,14.42-6.33,21.46-1.76,5.98-3.17,11.96-4.92,17.94-1.41,5.63-2.81,11.61-4.57,16.88-1.76,4.57-3.17,9.15-4.57,13.72-1.41,4.57-2.11,9.15-3.87,13.72-1.41,3.87-2.46,8.09-3.87,12.31-2.46,6.33-4.22,12.66-5.98,19.35-1.41,4.92-4.92,14.07-5.98,15.83-1.06,2.46-1.41,4.57-2.11,7.04-2.11,5.63-4.22,11.26-6.33,16.88-.7,2.11-1.41,4.22-2.46,6.33-.7,1.76-1.06,3.52-1.76,4.92-1.76,3.17-2.11,4.92-3.52,9.5-1.06,1.41-1.41,3.17-2.81,6.33,0,.35-.35.7-.35,1.06-.35.7-.35,1.41-1.06,1.76-.35.35-.7.7-1.41.7-.7,1.06-1.41,2.11-2.11,2.81-1.06,1.41-3.17,1.41-4.57,1.76-2.11,0-3.87.35-5.63.35-2.46.35-5.28,0-7.74,0-4.22.35-8.79.35-13.01,0-3.87-.35-7.74-.35-11.61-.7-7.39-.35-14.42-.35-21.81-.7-4.92-.35-10.2-1.06-15.13-1.41h-5.63c-.35,0-2.11-.35-2.46-.35-4.22-.7-12.31-1.41-14.07-1.76-5.63-.7-9.5-1.06-15.48-2.46-5.98-1.41-12.31-2.11-17.24-5.98-2.81-2.46-2.11-6.33,1.06-7.74,3.17-1.41,7.39-1.41,9.15-1.76,6.33-1.41,9.85-1.76,16.88-2.11,5.28-.7,8.79-1.06,13.37-1.76,4.92-.7,6.33-.35,10.9-1.41,3.87-.7,8.09-1.76,11.96-3.17h0v-1.41c.35-.35.35-.7.35-1.06v-.7s-.35-.35-.35-.7c-1.06-1.06-.7,0-1.41-1.06-2.46-1.76-1.76-1.41-4.57-2.11-2.46-.7-3.52-.7-4.57-1.06-3.87-.35-7.39-.35-10.9-.7h-5.98c-2.81-.35-5.63-.35-8.44-.7-4.57-.35-5.63-.7-9.15-1.06-4.57-1.06-8.79-1.76-13.01-3.17-2.81-1.41-7.03-2.46-7.03-5.98.7-5.28,7.39-6.68,11.96-7.74,1.41-.35,3.17-.7,4.92-1.06,1.06-.35,1.76-.35,2.11-.35-1.06,0-2.46,0-3.52-.35-2.81-.35-5.28-1.06-7.74-2.46-2.11-1.41-2.81-4.22-2.46-6.68,1.06-3.17,4.57-4.57,7.03-6.33.7-.35,1.06-.7,1.41-1.06,0,0-.35-.7-.35-1.06,0-.7-2.46-4.92-3.52-7.39-1.76-4.22-3.52-8.44-4.92-12.66-1.41-3.87-2.46-6.68-3.52-8.79-3.52-8.09-5.63-13.37-9.15-21.1-1.76-3.52-3.52-6.68-5.28-9.85-1.41-3.52-3.17-7.03-4.92-10.55-7.03-13.72-15.13-26.73-22.51-40.1-4.57-7.74-9.85-15.13-14.07-22.86h-2.81c-1.76,1.06-1.41.35-2.81,3.52-1.41,2.81-2.46,5.63-3.52,8.44-.35,1.76-.7,3.87-1.06,5.98-1.41,10.55-3.17,21.1-5.28,31.66-2.81,14.07-6.33,27.79-9.85,41.86-3.17,13.01-6.68,25.68-10.9,37.99.35.35.35.7-.35,1.06-1.06,4.57-2.46,9.15-4.22,13.72-3.52,11.96-8.44,23.57-13.01,35.17-3.52,8.79-7.04,17.59-10.9,26.38-4.57,9.15-8.79,18.29-13.37,27.44,0,1.41-1.41,2.46-2.81,2.11-1.76-.35-2.11-2.46-3.17-3.87-2.46-3.87-4.57-7.74-6.68-11.96-2.11-4.92-4.22-9.5-6.33-14.07-3.17-5.98-6.33-11.61-9.85-17.59-2.81-5.28-5.28-10.9-8.09-16.18-2.81-4.92-5.63-9.85-8.09-14.77-1.41-2.81-3.17-5.63-4.57-8.79-1.41-2.11-2.11-4.22-3.17-6.68-1.41-2.46-3.17-4.92-4.57-7.39-3.17-4.92-5.63-9.5-8.44-14.42-1.06-2.46-2.11-4.57-2.46-5.63-.7-1.41-.7-2.81-.7-3.52-.7-2.11-1.06-3.87-.7-5.98.35-1.41,1.41-2.81,2.11-4.22,1.41-3.17,3.17-5.98,6.33-7.74,1.76-1.06,3.87-1.41,5.98-1.76,1.76-.35,3.52-.7,5.28-.7,1.06,0,2.46-.7,3.52-1.41,2.46-.7,5.28-1.76,5.98-2.11,3.17-1.76,5.98-2.81,7.04-4.57h0l.35-.7h0v-.7s0-.35-.35-2.11c0,0,0-.7-.7-1.06-.7-.7-3.17-1.41-4.22-1.41-2.11-.35-5.28-1.06-7.04-1.06-3.17-.35-6.68-1.06-9.85-2.46-1.41-.7-2.81-1.76-3.87-2.81-1.41-1.41-2.46-3.17-2.11-5.28.35-1.41,1.76-2.46,2.81-3.17,1.06-1.06,2.11-1.76,3.52-2.46,2.81-1.06,5.98-.35,9.15-.35,2.11.35,3.87.7,5.98,1.06,2.46.35,5.28.7,7.74.7,4.22.7,5.98,1.06,8.09,1.41,6.33-1.06,12.31-2.81,18.29-4.22h.35v-2.11c-.7-1.06-2.11-2.81-4.57-4.92-1.41-1.06-3.17-2.11-4.92-2.81-2.81-1.41-14.07-3.87-17.24-4.22-4.92-.35-9.85-.35-14.77-.7-3.17,0-4.22-3.87-1.76-5.28h0c.35-2.11.35-4.22.7-5.98,1.76-8.44,2.81-16.88,4.57-24.97.7-3.52,1.41-7.39,2.46-10.55v-1.41c.7-1.41,1.41-2.81,2.11-4.22,2.46-6.33,6.33-11.96,9.85-17.24,1.76-2.46,3.17-4.57,5.28-6.68,1.06-1.41,2.46-2.81,3.87-4.22,2.46-2.81,4.57-5.98,7.04-8.79,2.11-2.46,4.22-4.57,6.33-6.68,1.76-2.11,3.17-3.87,4.92-5.98.7-1.06,1.76-2.11,2.81-3.17,6.33-8.44,12.66-17.24,21.1-26.03,1.76-2.46,3.87-4.22,5.98-6.68,1.06-1.76,5.28-7.03,7.03-9.85,1.76-2.46,4.22-4.92,6.33-7.39,1.76-2.46,3.87-4.92,5.98-7.03,4.92-6.68,9.85-12.66,15.13-18.99.35,0,.7-1.06,1.06-1.41,1.76-2.11,4.92-5.98,7.03-8.79,2.46-3.17,4.22-5.28,5.63-7.03,6.33-7.74,10.2-11.96,14.77-18.64,2.46-3.52,6.33-8.09,7.74-10.2,1.06-1.06,2.11-2.46,2.81-3.52.35-.7,1.06-1.06,1.41-1.41.35-.35,1.06-.7,1.41-1.06.7,0,1.41-.35,2.46-.7,2.81-.7,5.98-1.76,9.15-1.06,2.11.7,3.52,2.46,4.92,4.22,1.06,1.76,2.46,3.52,3.52,5.28,1.76,3.17,3.52,6.33,4.92,9.85,2.11,4.57,4.57,8.79,6.68,13.37.35,0,.35.35.35.35,1.06,1.41,1.76,3.17,2.81,4.57.7.94.82,1.17.35.7-.7-.7,1.41,2.81,2.11,4.22s1.41,2.81,2.46,3.87h0s.35.7.35,1.06c.35.35.7,1.06,1.06,1.41,3.52,6.33,7.39,12.66,11.26,18.64,4.22,8.44,8.79,16.53,13.37,24.62,3.17,5.63,5.98,11.26,9.15,16.88,3.87,6.33,7.03,13.01,10.55,19.7,3.87,7.39,8.09,14.77,11.96,22.16,4.57,8.44,9.5,16.53,14.42,24.62,2.11,3.17,4.22,6.68,6.33,9.85,1.06,1.06,1.76,2.11,2.46,3.17,0,0,.35,0,.35.35,1.06,0,1.76,1.06,2.46,2.11h3.17c2.11,0,1.41,0,2.81-.35,1.41-.35.7,0,2.46-1.06,1.76-1.06,3.52-3.17,4.22-6.33.35-1.41.7-2.46,1.06-3.52.35-1.41.35-2.46.35-3.87,1.06-7.03,1.41-13.72,2.11-20.75.7-7.03,1.41-14.07,1.76-21.1v-1.41s.7-1.76,1.41-2.46c1.41-1.06,3.17-1.76,4.92-2.11,2.11-.7,4.22-1.06,5.98-2.11,3.52-1.06,9.5-5.98,9.85-7.39h0s-.35-2.11-.35-2.81c0,0-.35,0-.35-.35h-.35s-.7-1.41-2.11-2.11c-2.81-1.06-2.81-.7-5.63-1.06-2.81-.35-2.11-.7-5.28-.7-4.57.35-5.63,0-9.5-.35-2.46-.35-5.28-.35-7.74-.7-1.41,0-3.17,0-4.22-1.06-1.06-.35-1.76-1.41-1.41-2.81,0,0,0-.7.7-1.06s.35-.35.7-.35c.7-.7,1.41-1.06,2.11-1.76.35,0,1.06-.35,1.41-.7.35-.35,1.06-.35,1.41-.7,1.06,0,2.11-.7,3.17-1.06,0,0,.35,0,.35-.35,5.63-2.11,10.9-3.87,14.42-5.98,0-3.17,0-5.98.7-8.79.35-11.96,2.11-23.92,3.17-35.53,0-.7,0-1.06-.35-1.41-.47-2.34-.94-3.87-1.41-4.57-.7-1.06-.35,0-.35-.35-.35,0-.35-.35-.7-.7-.7,0-1.06-.35-1.76-.35-1.76,0-3.87-.7-5.63-1.41-2.46-1.06-5.63-1.06-8.09-2.46-2.81-1.41-5.28-4.57-4.57-7.74.7-2.11,2.81-3.87,4.92-4.92,2.81-1.06,5.63-1.41,8.79-1.76,4.22,0,10.9,0,12.66-.35.35-.35.7-.35,1.06-.35,0-.35.35-.35.7-.35,0-.35.35-.35.7-.7,1.06-.7,1.41-1.41,1.41-1.41,0-.35.35-.35.35-.7v-.7h0s-.7-1.76-1.06-2.46c-1.41-1.06-2.11-2.46-3.17-3.87s-2.81-2.81-4.22-4.22c-1.76-2.11-3.87-3.87-4.92-6.68-1.06-.35-1.76-2.11-.7-2.81,0-.35.7-.7,1.06-.7.7-.35,1.41-.7,2.11-.7h0s.7-1.06,1.41-1.06h6.68c3.17,0,6.33-.35,9.85-.35,4.92.35,10.2.35,15.48.35,4.22-.35,8.09,0,11.96,0h8.09c2.81,0,5.98.35,8.79.35,4.22,0,8.44,0,12.66.7,5.98,0,11.96,0,17.94.7,3.52.35,6.68,1.06,10.2,1.41,3.52.7,7.39,1.06,10.9,2.11,1.06.7,1.76,1.41,2.11,2.46h1.41Z"/>
      <path class="cls-2" d="M2739.45,274.02v4.92c0,4.92,0,10.2-.35,15.13-.7,5.98-1.41,11.61-2.11,17.59-.7,7.74-1.41,15.13-2.46,22.51-.7,5.28-2.11,15.83-3.87,24.27-1.41,5.98-2.81,11.61-3.87,17.24-.7,3.52-1.41,7.39-1.76,10.9-1.06,4.22-1.76,8.44-2.46,12.66-1.41,6.68-2.81,13.01-4.57,19.7-.7,3.52-1.06,6.68-1.76,10.2-1.06,4.57-1.76,9.15-2.81,13.72-1.76,5.98-2.81,11.96-4.22,17.94-1.76,7.39-3.87,14.42-5.63,21.81-1.06,4.92-2.11,9.85-3.17,15.13-.7,2.11-1.41,4.57-1.76,6.68-3.52,16.18-7.74,32.36-11.96,48.19-1.76,6.68-3.52,13.37-5.98,19.7-1.76,6.33-3.87,12.31-5.63,18.64-1.41,4.57-2.81,9.5-3.87,14.42-1.06,3.17-2.11,6.33-3.17,9.5-.35,2.11-.7,4.57-1.41,7.04-.35,1.41-.7,2.81-1.41,3.87v.7c-1.76,3.52-2.46,7.39-4.22,10.9-1.76,4.22-3.17,8.44-5.98,13.37-1.06,1.76-2.11,3.17-3.17,4.92h0s-1.06,2.11-2.11,2.11c-.35.35-1.06.35-1.41.7-2.46,1.41-4.92,1.76-7.74,1.76-2.81.35-5.63.7-8.79.7-4.22,0-8.44-.35-12.66-.7-4.22-.35-8.44-.35-12.66-.7-6.33,0-9.5-1.41-16.53-1.41-2.46,0-4.92,0-7.39-.35-3.17-.35-6.68-.35-10.2-.7-4.22-.35-8.09-.7-12.31-.7-2.81-.35-3.17-.35-6.68-.7-1.76,0-3.17-.35-4.92-.7-1.76,0-3.17,0-4.92-.7h-1.06c-2.11,0-4.57-.35-6.68-.7-2.81-.7-5.98-1.41-6.33-4.92,0-3.52,4.57-4.57,7.39-4.92,4.22-1.06,8.09-1.76,12.31-2.11.35,0,1.06-.35,1.76-.35,1.41-.35,2.46-.7,3.52-1.06,5.28-1.76,9.5-3.87,11.26-6.33h0v-1.76c0-.7-.35-1.41-.35-2.11-2.46-2.46-4.57-2.46-9.5-4.22-2.11,0-4.22,0-6.33-.35-1.76-.35-3.52-.7-5.28-1.06-2.81-.7-6.33-1.06-8.44-3.17-1.41-1.76-2.11-4.22-1.06-6.33.7-.7,1.06-1.41,2.11-1.76.35-.35.7-.7,1.41-.7.35-.35.7-.35.7-.35,2.11-1.06,4.22-1.41,6.33-1.41,1.76-.35,3.52-.7,5.63-.7,2.11-.35,3.52-.35,6.68-1.06,3.87,0,7.74-1.06,10.55-2.46,1.41-1.06.35-.35,2.11-1.76,0,0,.35-.7.7-1.06h.35s-.7-1.06-2.46-2.11c-.35-.35-3.52-1.06-4.57-1.06-5.28-.7-7.39-1.06-11.26-1.41-5.28-.35-16.88-1.06-19.35-7.74-.7-2.11.35-4.22,1.76-5.63,1.41-1.41,3.52-1.76,5.28-2.11,3.52-.7,6.33-1.41,8.79-1.76.35-.35.7-.7.7-1.06,1.41-5.28,3.52-7.74,4.92-11.96,1.06-4.22,2.81-8.44,4.22-13.01,1.76-4.57,3.17-9.5,4.92-14.42,1.06-4.57,3.17-9.15,4.57-14.07,2.81-11.96,6.68-23.92,9.5-36.23,2.11-7.74,4.22-15.13,5.98-22.86,1.06-4.92,2.11-9.5,3.52-14.07,1.06-3.52,2.11-7.39,3.17-11.26,1.76-6.33,2.81-13.01,4.22-19.35,1.41-6.33,2.81-12.66,4.22-18.99,1.06-8.79,2.11-16.53,3.17-26.73-.35-.7-1.06-1.41-1.41-2.11-1.41-2.46-2.11-5.28-2.11-7.74s0-4.92,1.06-7.03c.7-1.76,2.46-3.17,4.22-3.17,1.41,0,2.81.35,4.22.35.35,0,.7-.35.7-.35.35-.35.35-.7.35-1.06s0-1.06.7-1.76c.35-3.87-.35-4.57-1.06-8.79-.35-2.46-.35-3.17-.7-7.03h0c-.35-2.81-.35-5.63-.35-8.44-.35-3.87.7-7.39,4.92-8.44,3.17-.7,6.33-.7,9.85-.7,2.46,0,5.28-.35,8.09,0,2.11,0,4.57,0,6.68-.35h.7c2.81-.35,1.76,0,4.57-.35,3.52-.7,7.39-1.06,11.26-2.46.35,0,1.06-.35,1.41-.7v-.35c0-.35.35-.35.35-.7v-1.41s0-1.76-.35-2.46v-.35c-.35,0-.7-.35-1.41-1.06-5.28-1.41-8.79-1.41-14.42-2.46-4.22-1.06-8.09-2.46-11.96-3.87-6.33-1.76-11.96-7.03-10.9-11.61,0-1.76.7-4.22,2.46-4.57.35-.35,1.76-.35,1.76-.35.35-.35,1.06-.35,1.41-.7,2.11-.35,4.22-1.06,6.33-1.41,3.17-.35,6.68-.35,9.85,0,4.22,0,8.44,0,12.31.35,3.87,0,7.39,0,10.9-.35,1.06-.35,2.11-.35,3.52-1.06.35,0,.35-.35.7-.7-2.11-.7-4.22-1.41-6.33-2.11-3.87-.7-8.09-1.41-12.31-2.46-3.52-1.06-7.03-2.11-10.55-3.52-1.41-.7-3.17-1.06-4.57-2.11-1.06-.35-1.76-1.06-2.46-1.76-.35,0-.7-.7-1.06-1.06-2.81-1.76-5.28-4.22-5.98-7.74h0c-1.41-3.87-1.06-7.03,3.52-8.44,0-.35.35-.7,1.06-.7.7-.35,1.76,0,2.46,0h2.81c3.87.35,8.09,1.06,11.96,1.41,2.81.35,4.92.7,6.68,1.06,1.76-.35,3.52,0,4.92.35.7.35,1.41.35,2.11.35,5.28.35,11.26,1.06,14.77,1.41,4.22.7,8.09.7,12.31,1.06,6.68.7,16.18,1.41,20.75,2.11,2.81.35,5.28.7,8.09,1.06,1.76,0,3.17.35,4.92.35,2.81.35,5.98.7,9.15,1.41h5.98s2.81,1.06,3.52,2.11c.35.7,1.06,1.41,1.06,2.46h0s.35,2.46.35,3.52v.7Z"/>
      <path class="cls-2" d="M3419.39,1077.41s-1.41,1.06-1.76,1.41c-1.06.7-2.11,1.41-3.17,2.11-3.17,2.11-5.98,4.57-8.79,6.68-10.55,7.74-20.75,15.83-32.36,24.97-3.17,2.46-6.68,5.28-9.85,8.09-2.11,1.06-4.22,3.17-5.98,4.57-2.11,1.76-4.22,3.52-6.33,5.63-2.46-4.92-5.98-9.15-9.15-13.72-1.06-1.06-2.11-2.46-2.81-3.87-.35-.35-.7-.7-1.06-1.41-5.63-8.09-11.61-15.83-17.59-23.92-3.87-5.28-7.74-10.55-10.55-14.07-5.98-7.04-12.66-13.72-19.35-20.05-5.63-5.63-11.96-10.55-18.29-15.48-3.17-2.81-7.39-5.98-12.66-9.5-4.22-2.81-8.44-5.28-13.01-7.74-4.92-3.17-14.77-8.44-17.59-9.5-2.81-1.41-5.63-2.46-8.44-3.17-2.46-.7-4.92-1.76-7.39-2.11-.35,0-1.06-.35-1.41-.35s-.7-.35-1.06-.35h-3.52s-1.76.35-3.87,1.06h-.7s-1.06.7-2.46,1.76c0,0-1.06.7-1.41,1.06-1.06,1.06-1.41,2.11-2.11,3.52,0,.7-.35,1.06-.35,1.76-.35.35-.35,1.06-.35,1.41v4.92s.35.7.35,1.06,0,.35.35.7c0,.7,0,1.41.7,1.76h0v.7s.35.35.35.7c1.06,1.41,2.11,3.17,3.17,4.92.7.7,1.41,1.41,2.46,2.46,4.22,4.92,9.15,9.5,13.72,14.42,4.22,4.22,9.15,8.09,13.72,12.31,9.85,8.44,20.75,16.18,30.6,24.62,4.57,3.52,8.79,7.39,13.37,10.9,1.76,1.76,3.52,3.17,5.63,4.92.7.7,1.41,1.41,2.46,2.11.7.7,1.41,1.76,2.46,2.11,1.06,1.06,2.46,2.11,3.52,3.52,5.98,4.92,11.96,10.2,17.94,15.13,7.39,5.98,14.07,13.37,21.46,20.05,2.11,1.76,3.87,4.22,5.98,6.33,2.81,2.46,5.63,5.28,8.09,8.09,2.46,3.52,5.63,6.68,8.44,10.2.35.35.7,1.06,1.06,1.76,1.41,1.41,2.46,2.81,2.81,3.17,3.17,3.87,5.98,8.09,8.79,12.31,3.17,4.57,5.28,9.85,7.74,14.77,1.41,2.81,1.06,2.11,2.11,5.28,1.06,2.11,1.76,4.57,2.81,6.68,1.06,3.52,2.46,7.04,3.52,10.55,1.41,4.92,2.46,9.85,3.52,15.13.35,2.81.35,5.98.7,8.79v1.06s0,2.11.35,3.17c.23.7.12.94-.35.7-.7-.35.35,2.81.7,4.22.35,2.81.35,5.63.35,8.09,0,2.81-.35,5.28-.7,8.09,0,1.06-.7,7.74-1.41,11.26-.7,3.52-2.11,7.04-3.52,10.2,0,1.41-.7,2.46-1.06,3.52-2.46,6.33-5.63,11.96-9.15,17.59-3.52,4.92-7.74,9.85-11.96,14.07-2.11,1.76-4.57,3.52-7.03,5.28-3.17,2.11-6.33,4.22-9.5,6.33-.35,0-.7.35-1.06.35-.7,0-1.06.7-1.41.7-4.22,2.46-8.44,3.87-13.01,5.28-4.92,1.06-10.2,1.76-15.13,2.11-2.81.35-3.87.7-7.74,1.06-4.57,0-9.15,0-13.72-1.06-5.63-.35-11.61-1.06-17.24-2.46-4.22-1.06-8.44-2.46-12.66-3.52-4.57-1.41-8.79-3.17-13.37-4.57-5.63-1.76-11.26-3.87-16.88-6.33-2.46-1.41-5.28-2.81-7.74-4.22-.7-.35-1.06-.7-1.76-1.06-1.76-1.06-3.87-1.76-5.63-2.81-14.07-6.33-27.79-13.72-41.15-21.81-6.68-4.22-13.72-7.74-20.4-12.66-3.87-2.46-7.39-5.28-10.9-8.09-4.92-2.81-9.85-5.98-14.07-9.5-2.81-2.46-6.33-4.92-9.15-7.74-1.06-1.06-2.11-1.76-3.17-2.11-.7-.23-.82-.23-.35,0,.7.35-1.06-.7-1.41-1.06h0c-8.44-7.04-18.64-15.13-26.38-22.51-2.81-2.46-5.63-4.57-8.44-7.04-2.46-2.46-4.92-4.57-7.39-7.04-2.46-2.81-5.28-5.63-7.74-8.44-3.17-3.17-5.63-6.68-8.44-10.2-3.52-3.87-6.68-7.39-10.2-11.26-2.46-3.52-5.28-6.68-7.74-9.85-1.06-.7-1.76-1.76-2.11-2.81-1.41-2.81-1.41-5.98,1.76-7.39h4.92c3.52,0,6.68,0,10.2.35,7.39,1.41,14.77,3.17,22.16,4.57,7.03,1.41,13.01,2.11,16.88,2.81h2.46s.35-.35,2.11-1.06h0s-.35-.7-.7-.7c-2.11-1.41-4.22-2.46-6.33-3.52-1.76-.7-3.52-1.76-5.28-2.81-2.46-1.41-7.74-2.81-10.9-6.33-1.06-1.06-2.11-2.46-3.17-3.52h0s-1.76-3.17-.35-4.57c.35-.7,1.06-1.06,1.76-1.41,2.46-1.41,4.92-2.81,7.03-4.22,6.33-3.87,13.01-7.39,19.7-10.55,3.52-1.76,7.39-3.52,10.9-5.28,0,0,0-.35.35-.35.7-.35,1.41-.7,1.76-1.06,1.06,0,1.76,0,2.11,1.06.7,1.06,1.41,2.11,2.11,3.17,1.41,2.46,3.17,4.22,4.57,6.33,1.41,2.11,2.81,4.22,3.87,5.98,1.06,1.06,1.76,2.46,2.81,3.52,5.98,8.09,11.61,15.13,18.99,23.57,6.68,7.39,13.72,14.77,21.1,21.46,2.81,2.81,6.33,4.92,10.55,8.09,3.87,3.17,8.09,5.63,13.37,9.15,4.22,2.81,8.44,5.98,12.66,8.44,6.68,4.22,14.07,7.39,21.1,10.55,5.28,2.46,9.15,3.87,16.18,5.98,4.22,1.41,8.09,2.81,12.66,3.52,0,.35,3.17.35,5.63.35h2.81c1.64-.47,3.05-.94,4.22-1.41,1.76-.7.35-.35.7-.7,1.41-1.06,2.46-2.46,3.87-3.87.35-1.06.7-2.81,1.41-4.57,0-1.41,0-1.06-.35-2.81-.35-2.46-1.06-4.92-2.11-7.74h0c-.7-2.11-1.41-3.17-2.81-5.63-3.87-5.98-5.28-7.74-10.2-13.37-1.76-1.41-3.52-2.81-4.92-4.57-2.81-2.81-3.87-3.52-6.33-5.28-3.87-3.52-7.74-6.68-11.96-10.2-4.57-3.87-10.55-8.09-11.96-9.15-2.46-2.11-4.92-4.57-7.39-6.68-1.41-1.41-6.68-4.57-10.2-7.04-2.81-1.76-5.28-3.87-8.09-5.63-.7,0-1.41-.7-2.11-1.06-6.68-3.87-13.37-8.09-20.05-12.31-5.98-4.22-11.61-8.79-17.24-13.72-3.17-2.81-6.33-5.63-9.5-8.44-2.81-3.17-5.98-5.98-8.44-9.15-3.17-3.52-6.33-6.68-9.15-10.2-1.76-2.46-3.52-4.92-5.28-7.39-1.76-2.11-3.17-4.57-4.57-6.68-2.46-4.57-4.92-8.79-7.39-13.01-1.41-2.81-1.76-3.52-3.52-7.04-3.52-6.68-6.33-13.72-8.79-20.75-2.11-5.63-4.22-11.26-5.28-16.88-.35-1.06-.35-2.11-.35-3.17-.35-1.76-.7-3.87-.7-5.63v-9.15h0s.35-2.81.35-3.87v-.7s0-1.41.35-2.11v-.7c1.06-2.11,3.52-2.11,5.28-1.76,2.46.35,4.57.7,6.68,1.06,3.17.7,6.33,1.41,9.5,2.11,3.17,0,6.68.35,10.2,0,1.06,0,3.52-.7,5.98-2.11.35-.35.7-.35,1.06-.7.23-.23.94-1.17,2.11-2.81,1.76-2.46,0,0,.35-.7h0s-.35-1.41-.7-1.76c0-.35-.35-.7-.35-1.06h-.35s-1.06-1.41-1.41-1.76c-1.06-.7-1.76-1.06-2.81-1.76-2.81-1.41-2.11-1.06-5.28-2.46-2.81-.7-8.44-2.11-8.79-2.11-3.52-.35-6.68-.35-10.2-1.41h-.7s-1.41-.35-2.11-.7c-1.06,0-1.76-.35-2.81-.35-1.76-.7-3.52-1.06-5.28-2.11-2.46-1.41-2.81-5.63-.35-7.04,3.17-1.41,6.33-1.76,9.5-2.46,2.46-.35,4.92-.7,9.15-1.06,0,0,4.22-.7,5.63-1.76h.35v-.7h0s0-1.06-.35-1.41c-.35-.7-.7-1.41-1.06-1.76-2.11-2.81-2.46-2.81-4.92-4.57-1.76-1.06-3.87-1.76-5.28-3.17-1.41-1.41-3.17-2.46-4.22-4.22-.7-1.41-1.06-2.81-1.41-4.22,0-1.76,0-3.87,1.06-5.28,1.06-3.17,3.87-4.92,6.68-6.33,1.06-.7,1.76-1.41,2.81-2.11,1.41-.7,3.17-1.41,4.57-2.46.35,0,.35-.35.7-.35v-.35c0-.23-.59-.82-1.76-1.76-2.11-1.41-1.76-1.06-4.92-2.11-2.46-.7-4.92-1.41-7.03-2.81-2.11-1.41-3.87-3.17-3.87-5.63,0-3.87,3.17-4.57,6.33-4.92,3.17-.35,3.17-.7,7.03-.7,3.87.35,7.74,0,11.96,0,2.46,0,4.92-.35,7.39-.35h.7c2.81-.7,4.57-1.41,6.68-2.46.7-.35,1.41-.7,2.46-1.06,1.06,0,1.76-.7,2.81-1.06,1.06-.35,2.11-.7,2.81-1.41.47-.47.7-.59.7-.35,2.11-1.06,4.57-1.76,7.03-2.46,3.52-1.06,6.68-2.46,10.2-3.17,5.98-1.06,11.61-2.81,17.24-3.17,5.28-.7,10.55-.7,16.18-.7,3.52,0,7.39,0,10.9.35,4.22.7,8.09,1.41,11.96,2.46,4.57,1.06,8.79,2.11,13.37,3.17,5.28.35,9.85,2.11,14.42,3.87,4.22,1.41,8.79,2.46,13.01,4.22,7.74,3.52,15.48,7.04,22.86,11.26,10.9,6.68,25.68,16.53,33.77,22.86,7.39,5.28,14.77,10.55,21.81,16.53,5.98,4.92,12.31,10.55,17.94,16.18,5.28,5.63,10.55,10.9,15.48,16.88,4.57,5.63,9.15,11.96,11.96,15.48,3.87,4.92,7.74,9.85,11.61,14.77,2.11,3.17,4.22,6.33,6.33,9.15,3.52,5.63,7.39,10.9,10.55,16.88,2.46,4.92,4.57,9.85,6.33,15.13,0,.35,0,1.06-.35,1.41h0s1.41,2.81.35,3.87l-.35-.35Z"/>
      <path class="cls-2" d="M3103.16,458.34v.7s0,2.11-1.06,3.17c-.7.7-2.11.7-3.17,1.06-2.46.7-5.28,1.06-8.09,1.76-4.57,1.06-9.15,2.11-13.72,3.17-11.96,2.81-23.92,5.28-36.23,8.09-6.68,1.41-13.37,2.46-20.05,3.87-1.76.35-3.87,1.06-5.98,1.41h-2.11s-2.81.7-4.22.35c-1.06,1.76-4.57,1.76-5.28-.7-.35-3.17-1.41-6.33-2.11-9.5,0,0-1.76-3.87-3.17-5.98-1.76-3.52-3.52-7.39-5.63-10.55-4.22-5.98-6.33-8.79-11.26-14.07-2.46-2.11-4.22-4.92-6.68-7.03-1.76-1.76-3.52-3.17-5.63-4.92-5.28-3.87-10.2-7.74-16.18-10.9-.7-.35-1.76-1.06-2.46-1.41-1.41-.7-3.17-1.41-4.92-2.11-3.52-1.06-7.03-1.76-10.55-2.81h-.7c-3.17-.7-1.76-.35-4.22-.7h-9.85c-2.11,0-4.22.7-6.33.7-6.33,0-13.01,2.11-20.75,4.57-2.46,1.06-7.03,2.81-11.26,5.28-8.09,4.57-13.37,8.44-19.35,13.72-3.87,3.87-7.39,8.09-10.9,11.96-2.81,3.17-8.09,10.9-11.26,16.53-.7.7-1.06,1.76-1.41,2.46,0,.7,0,1.06-.7,1.76-.7,1.06-1.41,2.11-1.76,3.17-1.76,3.87-3.52,9.15-4.57,14.77s-1.06,7.39-1.41,14.07c-.35,3.87-.35,7.74-.35,11.61.35,3.87,1.06,8.09,1.41,11.96.35,3.52,1.41,7.03,2.11,10.55.7,3.52,1.76,6.68,2.81,10.2,1.76,4.57,2.81,6.68,4.92,11.26,2.46,4.22,4.57,8.09,7.03,11.96,2.11,3.17,3.87,5.98,5.98,9.15,1.76,1.76,3.52,3.52,5.28,5.28,6.33,5.98,13.72,13.01,18.99,16.88,2.11,1.41,4.22,2.81,6.33,3.87.35.7,1.06,1.06,1.76,1.41.7.35,1.76.7,2.46,1.41,5.63,2.11,10.9,4.22,16.18,5.98,2.11.7,3.87,1.41,5.63,1.76h1.41c1.06.35,2.11.7,3.17.7,8.44,1.41,15.83,3.17,22.86,3.52h2.11c4.57,0,7.74-.7,13.01-1.76,4.57-1.41,2.81-.7,6.33-2.46s4.22-2.81,7.39-5.98c1.76-2.11,2.11-2.46,3.52-5.98.7-1.41,1.06-2.46,1.76-4.22v-1.41c-.35-1.41-.35-2.46-.7-3.17-.7-.7-1.41-1.41-2.11-1.76,0-.35-.35-.35-.7-.7h-.7c-2.81-1.06-5.98-1.41-8.79-2.46-4.22-.7-8.44-2.11-12.66-2.81-4.22-1.06-8.44-1.76-12.31-2.81-5.98-1.41-11.61-3.17-17.59-4.92-1.76-.7-3.52-1.41-5.28-1.76-.7,0-1.41-.35-2.46-.7-3.17-1.06-6.68-2.46-9.85-4.57-.7-.35-1.76-.7-2.81-1.06-1.41-.7-2.81-1.06-4.22-2.11-1.41-1.06-3.17-2.46-4.22-4.22-1.41-2.46.35-5.98,2.46-7.39,1.06-.7,2.11-1.06,3.17-1.06.7-.35,1.76-.7,2.46-.7,1.76,0,3.87,0,5.63.7h4.92s3.52-.35,5.28-.35h.7c.7,0,1.06-.35,1.41-.7.35,0,1.76-1.41,2.46-2.11v-1.41s-.35-1.06-.7-1.76c-.7-1.41,0-.7-2.11-2.46-1.41-1.06-2.46-1.76-5.28-3.52-1.06-.35-2.11-1.41-3.17-2.11-1.41-1.06-2.81-2.11-3.52-3.52-2.11-3.17-1.06-6.68,2.11-8.79,3.17-1.76,6.68-1.06,9.85-.7,6.68.35,11.26,1.06,16.18,1.76,3.52.35,3.52.7,7.74.7h.7s1.06-.35,1.41-.7c1.76-1.06,1.76-.7,3.17-2.46,0,0,.35-.35.35-.7s.35-.7.35-1.06v-1.06s-.35,0-.35-.7h0c-1.41-2.11-1.06-2.11-3.17-3.87,0-.35-.7-.7-1.06-1.06-1.41-1.06-1.06-1.06-2.81-2.11-2.46-1.06-4.92-2.46-7.39-3.52-2.46-1.06-4.57-1.76-6.68-2.81-2.11-.7-3.87-1.41-5.63-2.11-3.17-1.76-6.33-4.22-9.15-7.03-2.46-2.46-3.52-6.33-3.17-9.85,0-1.41,1.06-2.81,1.76-4.22.35-.7,1.06-1.76,1.76-2.46,1.41-1.41,2.46-2.46,4.22-3.52,1.06-.35,2.11-.7,3.52-1.06,1.41-.7,3.52-1.06,5.28-1.06h1.06s3.17,0,4.57.7c.7,0,1.06,0,1.76.35,5.63,1.76,11.61,3.52,17.24,4.92,5.63,1.41,10.9,3.52,16.18,5.28,5.63,1.41,10.9,3.17,16.53,5.28,4.57,1.76,9.15,3.17,13.37,4.57,8.09,3.17,16.53,5.63,24.62,8.44,6.68,2.11,13.01,4.92,19.35,7.03,3.52,1.06,6.68,2.11,10.2,3.52,5.28,1.76,10.2,3.87,15.48,5.98,1.76.7,3.52,1.41,4.92,2.11,5.28,1.76,10.9,3.87,14.07,5.28,2.46,1.06,1.76.7,3.87,1.76,1.41.35,2.81,1.06,4.22,1.76.7.35,1.06,1.06,1.41,1.76.35.35.7.7.7,1.41v1.41s-.7,3.17-.7,4.92c-.7,4.57-1.41,9.15-2.11,13.72-1.06,5.98-2.11,12.31-3.17,17.94-2.11,7.74-3.17,15.13-4.57,22.86-.7,5.63-1.41,10.9-2.11,16.18-.7,2.46-1.06,5.28-1.41,7.74-1.41,9.15-3.17,18.29-4.57,27.08-.7,4.22-1.41,10.55-2.11,16.53-1.06,4.92-1.06,7.04-2.11,12.66,0,1.76-1.06,3.87-1.41,5.63v.7c-2.81,1.41-5.63,3.52-8.44,5.28-3.52,2.11-7.03,3.87-10.55,5.98h-.7c-3.17,1.76-6.33,3.87-9.85,5.63-.7.35-1.06.7-1.76,1.06-.7,0-1.06-.7-1.41-1.06-4.57,2.46-8.79,4.92-13.37,7.04-1.06.7-2.11,1.41-3.52,1.41-1.06.7-2.46,1.06-3.52,1.41-1.06.35-1.76.7-2.81,1.06,0,0-.7.35-1.06.35-3.52,1.41-7.03,2.46-10.2,3.52-.7.35-1.06.35-1.76.35-5.28,1.76-10.9,2.46-16.18,3.87-4.57.7-9.15,1.76-13.72,2.46-3.52.35-7.03.35-10.55,1.06h-13.72c-4.22.7-8.09.35-12.31.7-9.5-.35-18.99-1.06-28.49-2.11-6.68-1.06-13.72-2.46-20.4-4.22-5.98-1.76-12.31-3.87-18.29-5.63-6.68-2.11-9.85-3.87-16.18-6.33-6.33-2.81-12.66-5.63-18.64-8.79-5.98-3.52-11.96-7.39-17.94-11.26-.7-.35-1.06-.7-1.06-1.41-1.76-1.41-3.87-2.81-3.87-2.81,0,0-.47-.23-1.41-.7-2.81-.7-5.28-1.41-8.09-2.11-2.81-.7-5.63-1.76-8.44-2.11-3.17-.7-5.98-1.06-9.15-1.41-2.46-.7-4.92-1.41-7.74-2.11-2.81-.7-5.63-1.41-8.44-2.46h-.7s-2.46-1.06-3.87-1.76c-.7-.35-1.41-.7-2.11-1.06-2.81-1.06-4.22-4.22-1.41-6.33,2.81-1.41,5.63-1.41,8.44-1.41,2.11.35,4.22,0,5.98,0,4.92.35,9.5.35,14.42-.35h2.81s0-.35.35-.35h0s-.7-1.06-1.06-1.41c-.7,0-1.76-.7-2.46-1.06-1.41-.7-2.81-1.41-4.57-1.76-.35-.35-1.41-.7-1.76-1.06-8.44-3.17-13.01-5.63-22.51-8.44-3.87-1.41-7.74-2.46-11.26-4.57h-.7s-2.46-1.41-3.17-2.46c-1.41-1.41-2.11-3.87-1.06-5.98,1.06-1.76,3.17-2.46,4.92-2.46,2.46-.35,4.92,0,6.68.35,0,0-.35,0-.35-.35-3.52-5.28-7.03-10.55-10.2-16.18-3.52-6.68-7.03-13.37-9.5-20.4-4.22-10.2-7.03-20.75-9.15-31.31-1.41-7.03-2.11-14.07-2.81-21.1-2.11-18.64-1.06-37.64,1.06-56.28.35-3.87.35-7.74,1.41-11.61.35-2.46.7-4.92,1.06-7.39.7-2.11,1.41-4.22,1.76-6.68,1.06-4.92,2.11-9.85,3.87-14.42.35-1.41.7-2.81,1.06-4.22,1.06-2.11,1.76-4.57,2.81-7.03v-.7s.35-.35.35-.7c0-1.06,0-2.11,1.41-2.46,1.06-.7,2.46,0,3.87,0,2.81.35,5.28.7,8.09,1.06,2.46.35,4.92.7,7.39,1.06,1.06,0,2.46.35,3.52.35h2.11s1.41.35,1.76.35h.35s.7.35,1.06.35h1.41s1.06.35,1.76.35h1.41c3.87,0,7.74.7,11.61.7,1.76,0,3.17,0,4.57-.35h0v-.7h0l-.7-.7c-3.17-1.76-6.68-2.81-10.9-4.22-4.92-1.76-9.85-3.17-14.42-5.63-1.06-.35-2.11-1.06-3.17-1.41-2.11-1.41-4.22-2.81-6.33-3.87h-.35s-.35-.7-.7-1.06h-.35s-1.06-1.41-1.41-1.76c-4.22-5.63-.7-11.26,5.98-11.61,4.57-.7,9.5,1.06,14.07,2.11,4.92,1.41,10.2,2.46,15.48,3.52,8.44,1.76,15.83,3.17,22.86,3.87h0c2.58-.7,4.92-1.64,7.03-2.81h.35s.35-1.06.35-1.41c.35-1.06.35-.7.35-2.46-1.06-3.17-1.76-4.22-5.63-6.33-2.46-1.06-7.39-2.81-11.96-4.22-2.81-.7-5.28-1.76-8.09-2.11-2.81-.35-5.63-1.06-8.09-2.11-1.41-.35-3.17-.35-4.22-1.06-1.76,0-3.17-1.06-4.92-2.11-2.46-1.41-4.57-3.52-6.33-5.28-.7-.7-1.06-1.41-.7-2.46.35-.35,1.06-1.06,1.76-1.76q0-.35.7-.35s.35-.7.7-1.06c.35,0,1.06-1.06,1.41-1.41h0c2.46-3.17,4.92-5.63,7.39-8.09,3.52-3.52,6.68-7.03,10.55-10.2,7.03-5.98,14.07-12.31,22.16-17.24,6.33-4.22,13.01-7.74,19.7-11.26,4.22-2.11,8.79-4.22,13.37-5.63,9.5-2.81,19.7-5.63,29.9-7.03,9.85-.7,19.7-1.06,29.55-1.06,4.22,0,8.44,0,12.66.7,3.87,0,7.74.35,11.26.7,8.44.35,16.53,1.76,23.22,2.46,3.52.7,7.03,1.76,10.9,2.46,2.81.35,5.63,1.41,8.44,2.11h.35l.7.35h1.41c1.06.35,1.76.35,2.81.7.7.35,1.76.7,2.81.7,2.81,1.06,5.63,1.76,8.09,2.46,2.11.7,4.22,1.41,5.98,2.11.7.35,2.11,1.06,2.46,1.06,5.63,2.11,11.26,4.57,16.53,7.74,3.52,2.46,7.39,4.57,10.9,7.03,4.57,3.87,8.09,6.33,11.26,8.79,5.28,4.22,10.55,8.79,15.48,13.37,1.76,1.41,3.17,3.17,4.92,4.92,1.41,1.76,3.17,3.52,4.92,5.28,3.52,3.52,6.68,7.39,9.85,10.9,2.46,2.81,4.57,5.63,6.68,8.44,2.11,2.81,4.22,5.63,5.98,8.44,3.17,4.22,5.63,8.79,8.44,13.01,1.76,3.17,3.87,6.33,5.63,9.5,1.06,2.11,2.11,3.87,3.17,5.98,2.11,3.17,3.87,6.68,5.63,9.85,2.46,4.22,3.87,7.74,5.28,11.61,0,.35.35.7.7,1.06l.35.35Z"/>
      <path class="cls-2" d="M3920.63,643.36l.35.35c-1.76,3.52-3.17,7.39-4.22,11.26-.35.7-.7,1.41-.7,2.46-.35,1.06-1.06,2.11-1.41,3.17-.35,1.06-.7,2.46-1.06,3.52v1.06c-3.17,8.09-6.68,16.18-9.85,23.92-3.52,8.79-6.68,17.24-9.85,26.03-.7,2.46-1.41,5.28-2.11,8.09-.35,0-.35.35-.35.7,0,1.06-.35,1.76-.7,2.81h-.35c-2.46,8.79-5.28,17.59-7.39,26.38-1.06,3.17-1.41,6.33-2.11,9.85-.7,3.17-1.41,6.68-2.11,10.2-1.06,6.33-1.76,10.2-2.11,16.18-.7,1.41-1.06,2.81-1.76,4.22-.35.35-.7.7-1.06,1.06-4.22,4.22-9.15,3.87-14.42,2.81-1.41-.35-2.46-.7-3.87-1.41-2.11-.7-4.57-1.76-6.68-3.17-5.63-3.17-11.26-6.33-16.53-9.85-5.28-2.81-10.55-5.98-15.83-9.15-11.61-7.04-23.22-14.07-35.53-20.4-4.22-2.11-6.33-3.17-9.85-4.57h-1.06s-2.46-.35-3.87-.35c0,.35-.35.35-.35.35-1.41,1.06-2.81,2.46-4.22,3.87-2.46,2.46-3.17,3.87-4.92,7.74-2.46,4.92-5.28,14.42-8.09,21.81-1.76,4.57-3.17,9.85-4.92,14.77-1.41,4.57-3.17,8.79-4.22,13.72-1.06,3.52-1.76,7.04-2.46,10.9-.7,3.87-1.76,7.74-2.46,11.61-1.41,7.04-2.46,13.72-4.22,20.75-1.41,7.04-2.11,14.42-3.87,21.46-1.06,4.57-2.11,8.79-3.17,13.37-1.06,5.98-1.76,11.96-2.81,17.94,0,2.46-1.76,14.42-2.46,19.7-.7,3.87-1.76,7.74-2.11,11.61-.7,3.52-1.06,7.04-1.76,10.2-.7,3.87-1.41,7.74-2.11,11.61-.7,2.81-1.06,5.98-1.76,9.15-.7,3.52-1.41,7.04-1.76,10.2-.7,6.33-1.76,10.9-2.11,15.83-1.06,7.04-2.11,14.42-2.46,21.81-1.06,10.2-2.11,20.4-2.46,30.6,0,3.87-.35,7.74-.7,11.96v15.13c0,5.98,0,11.96-.35,17.94-.35,1.06-.35,1.76-.35,2.46.35.7,0,1.41-.35,2.11-.35,1.06-1.41,2.81-2.81,3.87h-.7s-.7.7-1.06.7c-2.11.35-1.76.35-4.57,1.06-1.06,0-2.11,0-3.52.35h-12.31c-2.11,0-4.57,0-7.03-.35-3.52-1.06-6.68-3.52-9.85-5.63-2.11-1.41-4.22-2.81-6.33-4.57-2.11-1.41-4.57-2.81-7.03-4.57-2.81-1.76-5.63-3.52-8.79-5.28-3.17-2.11-6.33-4.57-9.5-6.33-4.92-2.81-9.5-6.33-14.07-9.5-2.81-1.76-5.98-3.52-8.79-5.28-1.76-1.06-3.87-2.46-5.63-3.87-5.28-3.17-10.2-5.63-15.13-9.15-3.52-2.11-7.39-3.52-11.26-5.63-8.09-4.57-16.53-8.79-24.62-13.37-1.76-1.06-1.76-3.52-.7-4.57.7-2.11,2.81-3.17,4.92-3.52,3.52-1.06,7.03,0,10.55.7,8.09,1.76,15.48,4.22,23.22,6.33,1.76,0,3.17,1.06,4.92,1.41h.7s2.46.7,3.87.7c2.81,1.06,5.98,1.76,8.79,2.46,3.17.35,2.81.35,5.63,0,.7-.35,1.76-.7,2.46-1.06,1.06-1.06,1.76-2.11,2.11-2.81,0,0,0-1.06.35-1.41h-.35c-1.41-3.52-1.41-3.17-4.22-5.63-2.81-2.81-8.09-4.92-14.07-6.68-4.22-1.76-8.79-3.52-13.01-4.92s-9.15-2.81-12.66-4.57c-1.06-.35-1.76-.7-2.46-1.06-2.46-1.06-4.92-2.46-7.03-4.22-1.76-2.11-2.11-5.28-.7-7.39,1.41-2.46,4.92-2.81,7.39-2.46,6.68.7,12.66,2.81,18.99,4.57,0-4.22,0-8.09.35-12.31.35-6.33,1.41-12.66,2.46-18.99,1.41-8.79,3.17-17.24,4.22-25.68.7-3.52,1.06-7.04,1.41-10.55h-3.87c-3.87-.7-8.09,0-12.31-.7-5.28-1.06-4.22-5.63-1.76-7.04,2.46-1.76,5.63-1.41,8.44-1.06,1.06,0,3.52,0,6.33.7h1.41s.35-.35.35-.7c.35,0,.7-.35.7-.7v-.35s.7-1.06,1.41-2.46v-1.41s.35-.35.35-1.06c-1.06-1.06-2.11-1.76-3.17-2.81-.7-.35-1.41-.35-2.11-.7h-8.44s-2.11-.35-3.17-.35c-.7,0-.94-.12-.7-.35h-.35s-2.81,0-3.17-.35c-1.76,0-3.52-1.41-4.92-2.81-1.06-2.11,0-4.57,1.76-5.98,2.46-2.46,6.33-2.81,9.85-2.46,1.76,0,3.52,0,5.63.7,2.46,0,4.57.35,6.68.7.7,0,1.41.35,1.76.35h1.76s.35-.7.7-1.06v-1.41c.35-.7.7-1.41.7-1.76.7-4.22.7-4.92,1.41-8.79,1.41-7.74,2.81-15.48,4.57-23.22,1.41-5.98,1.76-11.61,3.17-17.59,2.46-10.55,4.92-20.75,7.39-31.31,1.76-8.44,3.17-16.53,4.92-24.97.7-2.11,1.41-4.22,2.11-6.33,1.06,0,1.76.35,2.46.35h11.61s1.41,0,3.52-.35c1.41-.35,2.81-.7,4.22-1.41.94-.47,1.17-.47.7,0h.35s.35-1.06.35-1.41v-.7s-.35-1.41-.7-2.11c-.35-1.41,0-.7-1.06-2.11-1.06-1.06-.35-.7-2.11-1.41-2.46-1.06-1.76-.7-4.57-1.06-2.11-.35-4.22-.35-6.33-.7-2.11-.35-4.22-.35-5.98-1.06-4.92-1.41-4.57-7.39-1.06-10.2,2.11-1.41,4.22-2.11,6.33-2.81,1.41-.35,2.46-.35,3.87-.35,2.46,0,4.92.35,7.39.35,1.76,0,3.87,0,5.63.35,1.41.47,2.46.7,3.17.7,1.06,0,3.17,0,4.92.35.7,0,1.76,0,2.81.7,2.11-.35,3.87-.35,4.57-.7,2.46-.35,2.11-.35,3.52-1.06h0v-2.81c-.7-3.52-1.06-3.52-1.76-4.57-.7-1.06-5.98-3.87-9.15-5.63-5.28-1.76-10.9-2.46-16.53-3.52-.35,0-1.06-.35-1.41-.7s-.7-.35-1.06-.7c-.7-.7-.35-1.76,0-2.46h0s.35,0,.35-.7.35-.7.35-1.41.35-1.76.7-2.46c.35,0,.35-1.06.7-1.76h0c1.76-4.92,2.81-9.85,4.57-14.42,2.46-8.79,3.17-14.07,3.52-22.51v-10.55c-.35-.7-.7-1.06-1.41-2.46-2.11-2.46-2.46-2.46-4.92-4.57-2.81-1.76-5.28-3.52-7.74-5.28-8.79-5.63-18.64-10.2-28.14-14.77-8.44-4.57-14.42-7.04-22.51-10.55-6.33-2.81-12.66-4.92-20.4-7.74-.7,0-1.06,0-1.41-.7-.23-.47-.47-.59-.7-.35-.35.35-.7-.35-1.06-.35-.35-.7-.7-1.41-.35-2.11-.35-2.81,0-5.63.35-8.44,1.06-5.63,2.81-15.13,4.57-23.92-2.46-1.06-4.92-2.11-6.68-4.57-1.41-1.76-.7-5.28,1.76-5.63h2.11c1.41,0,2.81,0,4.57.7h.7c1.76-4.92,2.81-10.2,4.57-15.13,1.76-5.63,3.87-10.9,5.63-16.53h0l-.35-.7c-.35,0-.35-.35-.35-.35l-1.76-1.76c-3.87-2.46-8.09-3.87-11.96-6.33-3.52-2.11-8.09-3.52-7.03-8.79.7-2.11,2.81-3.52,4.92-4.57,1.76-.35,4.22,0,6.33-.35,2.81,0,5.98.35,8.79.7,1.06.35,2.11.35,2.81.35h5.63c0-.35,1.06-.35,1.76-.7h.35s.7-1.76,1.06-2.81c0-.35,0-1.06-.35-1.41v-.7c-.35-1.06-1.06-2.11-1.41-2.81-.23-.47-.47-.7-.7-.7-.35,0,0,0,0-.35-.7-.35-1.41-.7-2.11-1.41-1.06-.7-2.11-1.06-3.17-1.76-2.11-1.06-1.76-1.06-2.81-1.41-2.81-1.06-5.63-1.76-8.44-3.17-1.41-.7-3.17-1.76-4.92-2.46-2.46-1.41-5.28-3.17-5.28-6.33,0-2.81,2.81-3.87,5.28-3.87,1.76-.35,3.87-.7,5.98-.7,2.81,0,5.28,0,8.09.7,1.06,0,6.68.7,9.85,1.41,2.81.7,5.98,1.06,8.79,1.76,2.11.7,3.87,1.41,5.98,1.76.35,0,1.06,0,1.76.35,5.98,2.11,11.96,3.52,17.94,5.63.35,0,1.06.35,1.41.35,3.52,1.06,6.68,1.76,9.85,2.81,5.63,1.76,10.9,3.87,16.18,5.98,5.98,2.11,11.61,4.22,16.88,7.39,4.22,1.76,8.79,3.87,13.01,5.98,1.41,1.06,3.17,2.11,4.92,3.17,1.76.7,3.52,1.41,5.28,2.11,8.09,3.17,16.18,7.03,23.92,10.9,11.96,5.28,21.81,9.5,32.71,14.07.7,0,1.76.35,2.46.7,1.06.7,2.11,1.06,3.17,1.76,1.06.35,1.76.7,2.46,1.06,8.79,3.52,14.77,5.98,22.16,9.15,7.39,2.81,14.42,5.63,21.46,8.79,5.28,2.11,15.48,6.68,17.94,8.09,7.39,2.81,14.77,5.63,21.81,8.44,10.2,3.87,20.75,7.39,30.95,11.26,2.81,1.06,5.63,2.11,8.09,2.81,2.81,1.06,5.63,2.11,8.44,3.52.7,0,1.06.35,1.41.35,1.41.35,2.81,1.06,4.22,1.41,1.76.35,3.52,1.06,4.92,1.41,8.44,2.11,14.77,4.22,21.46,7.39,1.76.7,3.52,1.41,5.28,2.11,1.76.7,2.11,2.11,2.46,3.17h-.35l-.71-1.41Z"/>
      <g id="g303">
        <g id="g302">
          <path class="cls-2" d="M2689.86,839.98c0,4.92,0,9.85-1.06,14.77v.7s-.35.7-.7,1.06c-.35.7-1.41,1.06-2.11,1.41-1.06,0-2.11.35-2.81.7-3.87.7-7.74,1.76-11.26,2.81-4.57.7-8.79,1.76-13.01,2.81-8.79,2.46-17.24,4.57-26.03,6.33-3.52,1.06-7.03,2.11-10.55,2.81-2.81.35-5.28.7-7.74,1.41-5.28,1.41-10.2,2.46-15.48,3.52-5.98,1.76-11.96,3.52-18.29,4.92-2.46.7-3.87-2.46-2.46-3.87-.7-1.06,0-2.46,0-3.87.35-3.17.7-5.98.35-9.15-.35-1.76-1.06-3.87-1.41-5.63-.7-1.76-1.06-3.52-1.06-5.28-.35-1.41-.7-2.46-1.06-3.87h0c-1.41-2.58-2.93-4.81-4.57-6.68-2.46-2.81-4.57-6.33-7.74-9.15-1.88-1.88-3.63-3.4-5.28-4.57-1.64-1.17-2.93-2.11-3.87-2.81-1.41-1.06-3.17-1.41-4.57-2.11-2.81-1.41-6.68-2.81-11.26-4.57-4.57-2.11-6.68-3.17-12.66-4.57-6.33-1.76-15.13-1.76-23.57-1.76-4.92,0-12.31,1.06-14.42,1.41-6.68,1.41-16.53,4.92-20.05,6.33-2.81,1.41-5.28,2.46-8.09,4.22,0,.35-.35.7-.7,1.06-1.41,0-2.46,1.06-3.52,1.76-7.03,4.22-11.61,7.39-17.59,12.31-10.9,9.15-20.05,19.7-28.84,30.25-2.81,3.17-7.39,11.26-10.55,16.88-1.76,3.17-3.17,5.98-4.57,9.15-.7,1.76-.7,2.46-2.11,5.63-2.11,4.57-3.17,6.68-4.57,12.31-.35,1.41-1.06,2.46-1.41,3.52-1.06,2.81-1.41,5.28-2.11,8.09-1.06,4.92-1.06,8.44-1.76,14.77v15.83c.35,2.46,1.41,4.92,2.11,7.39.7,2.11,1.76,4.22,2.46,6.68,1.41,3.52,1.76,4.57,3.87,8.44,3.87,5.98,6.68,9.5,10.55,13.72,4.22,4.92,10.55,10.2,13.72,12.66,13.72,9.5,27.79,14.42,42.56,15.13h7.03s.35-.35.7-.35c1.06-.35,2.46-.35,3.52-.35,4.57-.7,8.79-1.06,11.96-1.41,4.22-1.06,8.44-1.76,12.66-3.17,1.76-.7,3.17-.7,4.92-1.41,3.17-1.06,5.98-2.11,9.15-3.17,1.41-.35,4.57-2.46,7.74-4.22h-.35s.35-.7,0-.7h-.35c-3.52-.35-6.68-1.06-9.85-2.11-2.11-1.06-4.92-1.76-5.28-4.22-.7-1.76.35-3.52,2.11-4.57,2.11-1.06,4.57-1.06,7.03-1.06,6.68-.7,13.01-.7,19.35-.35h10.9c5.98,0,12.31,1.41,18.29.7h.7c-3.17-1.06-7.39-1.76-6.68-5.98,1.41-3.87,7.39-3.87,10.9-4.57h8.44c2.46-.35,4.57-.7,6.68.35,1.06.7,2.46,1.41,3.52,2.46h0c3.87,3.17,8.79,6.68,13.37,9.85,7.39,5.28,15.48,11.26,20.75,15.48,5.28,3.87,10.55,7.74,15.48,11.61,2.46,2.11,4.57,4.22,7.03,6.33,1.06.35,2.11,1.06,2.46,1.76h.35s1.41,1.76,1.76,2.11c.35.7.7,1.41.35,2.11,0,.35-.35.35-.35.7-.7,1.41-1.41,2.46-2.11,3.52-.7.7-1.41,1.76-2.11,2.46-4.92,5.63-9.85,11.26-15.48,16.18-3.17,2.81-5.98,6.68-9.5,9.5-3.17,2.46-6.33,4.22-9.85,6.68-3.17,2.11-6.68,4.22-10.2,6.68-3.17,2.11-6.33,4.57-10.2,6.68-3.52,2.11-7.39,3.52-10.9,5.63-9.5,4.92-19.35,9.15-29.9,11.96-8.09,2.46-16.53,3.52-24.97,4.57-3.87.35-8.79,1.41-14.77,2.11-7.74,0-15.83,1.76-23.57,1.76-2.81.35-5.28,0-8.09,0h-6.68c-7.39,0-15.13,0-22.51-.7-4.92-.35-9.85-1.76-14.42-2.46-12.66-2.46-25.33-5.28-36.93-10.2h-1.41s-1.06-.7-1.41-1.41c-1.06-1.41-2.11-3.17-2.81-4.57-.35-.35-.7-1.06-1.06-1.41,0-.35-.35-1.06-.7-1.76-3.87-5.63-7.39-11.61-10.55-17.59-1.41-3.17-2.81-6.33-4.22-9.85-3.87-8.09-8.09-15.83-12.31-23.92-4.22-9.85-7.03-17.24-12.31-27.44-2.46-4.92-5.28-9.5-7.39-14.42-1.41-3.87-2.46-7.74-4.22-11.61-1.41-2.81-2.46-5.98-3.87-8.79-2.11-3.52-3.52-7.04-5.28-10.55-2.11-4.22-3.52-9.15-5.28-13.37-1.06-3.17-1.76-4.22-3.52-8.09-1.76-4.22-3.17-8.44-4.57-12.66-.35,0-.35-.7-.7-1.06-2.11-4.22-3.52-7.74-4.57-10.55-.7-1.06-1.76-3.52-2.46-6.33,0-1.41-1.06-2.46-1.41-3.52-1.06-2.46-2.46-4.92-3.87-7.74-.7-1.41-1.06-2.46-1.76-3.87-.7-3.52-2.11-6.68-3.17-10.2-1.06-2.46-1.76-4.92-2.81-7.39-.35-1.06-.35-2.46-1.06-3.17v-.7c-.35-2.11,0-3.87.35-5.98v-2.11c.35-1.41.35-2.81.7-4.22,1.06-3.87,2.46-7.39,4.57-11.26h-6.33c-1.76-.7-3.17-1.76-4.57-3.17-1.76-3.52,1.41-7.04,4.57-7.74,4.57-1.06,8.79-1.76,13.37-2.11,3.87-.35,7.74-.7,10.55-1.41,0-.35-.35-.35-.35-.7-1.06-2.46-1.06-5.28.35-7.74,0-.7,0-1.06.7-1.76,0-.35.7-.7,1.06-1.06,1.06-.35,2.11-.7,3.17-1.06,7.74-2.46,16.53-3.52,22.51-4.22,7.03-.7,16.18-1.06,20.4-1.76,2.81-.35,5.63-1.06,8.09-1.76,1.76-.7,2.46-.7,2.81-1.06h-.35c-2.11-2.11-1.76-1.76-5.98-3.17-3.87-.7-4.57-.7-8.09-1.41-2.81-.35-5.98,0-8.79-.35-2.46,0-5.28-.35-7.74-.7h0c-2.81,0-6.68-.7-8.09-3.52-.7-1.41-.35-3.52.35-4.92,1.06-1.41,2.11-2.11,3.87-2.81,3.17-1.06,6.68-1.06,9.85-1.06,1.76-.35,3.87-.35,5.63-.7-2.46-.35-4.92-1.06-7.39-1.41-1.76-.7-4.92-.35-8.44-1.06-1.06,0-2.11,0-3.17-.7-.35-.35-1.06-.35-1.41-.7-1.06-.35-2.11-.7-3.17-1.41,0,0-.35,0-.35-.35-1.06-.7-1.76-1.41-2.46-2.81-.7-1.41-.35-2.81.35-3.87,2.46-3.17,6.68-3.87,10.2-4.57,4.92-.7,10.2-.7,15.13-1.41,2.81-.35,4.57-.7,9.5-1.41,1.76-.35,3.87-.7,5.63-1.06.35,0,1.41-.7,1.76-.7,1.06-.35,2.11-1.06,3.17-1.76,1.06-1.06,2.46-1.76,3.52-2.81.7-.7,1.06-1.41,1.76-1.76,1.06-1.06,1.76-2.11,2.81-2.81,2.46-2.11,3.87-3.17,5.28-4.57,3.87-3.52,5.98-4.92,9.15-7.39,3.17-2.81,8.09-5.98,9.5-7.04,3.17-2.46,6.33-4.57,9.85-6.68,2.81-2.11,5.63-4.22,9.15-5.63,7.39-4.22,15.48-7.39,21.81-10.2,3.52-1.41,7.03-2.81,10.55-4.57,1.41-.35,2.81-.7,3.87-1.06,1.76-.7,3.52-1.41,5.28-2.11,5.63-1.76,10.9-3.87,16.53-5.28,9.15-2.11,18.64-3.52,28.14-4.92,10.55-1.41,21.1-2.46,31.66-3.17,5.98,0,11.61,0,17.59.35h8.09c3.17.35,6.33,1.06,9.15,1.41,3.87,1.06,7.74,1.76,11.61,2.81,4.22,1.06,8.44,2.46,12.66,3.87,2.81,1.06,5.28,2.81,8.09,3.87,2.11,1.06,4.92,1.76,6.68,2.81,4.57,2.46,9.15,5.28,13.01,8.44,4.22,2.81,8.09,5.63,11.96,8.79,1.76,1.76,3.17,3.17,4.92,4.92,2.11,1.76,4.22,3.52,6.33,5.63,2.11,2.11,3.87,4.22,5.63,6.68,1.76,2.46,3.87,4.57,5.98,7.04,3.87,4.57,7.03,9.85,10.55,14.77,2.11,3.17,4.22,6.68,5.98,10.55,2.11,3.87,3.87,7.74,5.28,11.61,1.76,4.57,3.17,9.5,4.92,14.07,1.41,3.52,2.11,7.39,2.81,11.26,1.06,3.87,1.76,7.39,1.76,11.26v-.35Z"/>
        </g>
      </g>
      <g id="g304">
        <path id="path304" class="cls-2" d="M2924.48,825.56s-3.87,0-5.63.35c.35,0,1.06.35,1.41.35h3.17c.7,0,1.06.35,1.41.35s.35-.35.35-.35c1.06,0,1.76-.7,2.81-.7.35-.35,1.06-.35,1.76-.35h-5.28v.35ZM3101.41,854.05s-.35-.35-.7-.7c-.35,0-.35-.35-.35-.35h-.7c-1.06-.7-1.76-1.41-2.81-1.76-1.41-1.41-3.17-2.46-4.92-3.52-2.81-2.11-5.63-4.22-8.79-5.98-3.17-2.11-6.68-3.52-9.85-5.28.7.35,1.41,1.06,2.11,1.41,2.46,1.41,5.28,2.81,8.09,4.92,2.11,1.06,3.87,2.81,5.28,4.92h0s1.41.7,2.11,1.41h0c4.57.35,7.74,4.92,5.98,9.15-.35.7-.7,1.41-1.41,2.11-1.06,1.06-2.11,2.11-3.52,2.81-1.76,1.06-3.52,2.11-5.28,3.17h0s-1.06,2.11-1.76,2.81c-1.76,1.76-3.87,2.81-5.63,3.87-.35,0-.7.35-1.06.35-.35.35-.7.7-1.06,1.06s-.7,1.06-1.41,1.41c0,.35,0,.7-.7,1.06-1.41,1.76-3.17,3.52-5.28,5.28,3.52-2.11,6.68-4.22,9.85-6.33,6.33-4.57,12.66-9.5,18.99-14.77.7-.35,1.41-1.06,2.46-1.76.35-.35,1.06-.7,1.06-1.41.35-1.41,0-2.46-1.06-3.52l.35-.35ZM2655.04,1137.21v1.76h.35s-.35-1.06-.35-1.76ZM2657.85,1101.33s0,.35-.35.7c.35,0,.35-.35.7-.35h0l-.35-.35ZM2656.09,1105.2h1.06s-.7-.35-1.06,0ZM2697.25,895.21s-.7,1.76-.7,2.81c0-1.06.35-2.11,1.06-3.17-.35,0-.35.35-.35.35Z"/>
        <path class="cls-2" d="M3091.2,849.13h0s-1.41-1.41-2.11-1.76h0c-1.41-2.11-3.17-3.87-5.28-4.92-2.81-2.11-5.63-3.52-8.09-4.92-.7,0-1.41-1.06-2.11-1.41-1.06-.7-2.11-1.41-3.52-1.76,0-.35-.35-.35-.7-.35h-1.06c-3.52-2.11-6.33-4.22-10.2-5.63-6.68-2.81-13.01-5.63-20.05-8.09-7.74-2.81-15.48-4.92-23.22-7.39-9.15-2.81-18.29-5.28-27.44-7.39-2.46-.7-4.57-1.06-7.03-1.76-1.06-.35-2.11-.35-3.17-.7-.35,0-.35.35-.7.35-1.41,1.06-2.46,2.46-4.22,3.52-.7.7-1.41,1.76-2.46,2.46-.35,0-.7.35-.7.35-2.11,1.76-4.57,3.17-6.68,4.92-.7.35-1.76,1.06-2.46,1.76-3.17,2.11-6.33,4.57-9.5,5.98-1.76,1.06-5.63,2.11-8.79,2.81h-3.17s-2.81-.35-3.87-.35-2.11,0-2.81.35h-1.06l-.7.35c-.7,0-1.41,0-1.76.35-1.06,0-1.76.35-2.81.7,0,0,0,.35-.35.35s-.7-.35-1.41-.35h-3.17c-.35,0-1.06-.35-1.41-.35h-1.41s-2.11.35-3.17.7c-.7,0-1.41,0-2.11.35-3.52,1.41-3.17,4.92-.35,7.04,2.11,1.76,4.92,2.11,7.39,3.17,1.76.7,3.52,1.41,4.57,2.46.35.7.35,1.06.35,1.76,0,0-.35.35-.7.7,0,.35-.35.35-.7.35h-.35s-1.76.7-2.11.7c-2.11.35-2.46.35-4.57.7-3.52,0-6.68-.7-10.2-.7-2.81-.35-5.98-.35-8.79,0-2.46,0-4.92.35-7.39,1.41-3.87,2.11-2.81,6.68,1.06,8.44,2.46,1.41,5.28,1.41,8.09,2.46,2.46,1.06,1.76.7,3.52,1.76v1.06c-.7,1.41-1.76,3.17-2.81,4.92h0c-5.28,4.22-9.15,7.39-14.77,11.61-4.92,3.52-7.74,5.98-11.61,9.15-7.39,5.63-14.07,11.61-20.05,16.18-8.79,6.33-17.24,13.01-25.33,20.05,1.06-7.04,2.11-13.72,3.52-20.75,3.52-13.37,7.39-26.73,11.26-40.1,1.41-4.92,2.81-10.2,4.22-15.13.7-2.81,1.76-5.98,2.46-9.15,1.06-4.57,2.11-9.5,3.87-14.07,1.06-4.57,2.46-9.15,3.87-13.72,1.06-3.87,2.11-7.74,3.52-11.61,1.06-3.87,2.11-8.09,3.17-11.96.7-1.76.7-3.17,1.06-4.92.7-2.11,1.41-5.63-1.76-5.98-.7-.7-1.76-1.06-2.46-1.41-1.06-.35-1.76-.7-2.46-1.06-.35-.35-1.06-.35-1.41-.7-.7-.35-1.41-.7-2.46-1.06l-.7-.35h-.7s-.7-.35-.7-.7c-.7,0-1.76-.35-2.11-.7-9.5-3.52-18.99-6.68-28.49-9.15-8.44-2.11-16.88-3.52-25.68-5.28-12.31-2.11-25.33-3.52-37.99-4.92-1.06,0-2.11-.7-3.52,0-.35,1.06-.7,2.11-1.06,3.17s-.7,2.46-1.41,3.87c-1.41,4.22-2.81,8.09-4.22,12.31-.35.7-.35,1.41-.35,1.76l-.7.7h-.35c-2.81.7-7.74,0-12.31.35-4.57.7-9.5,1.06-13.72,3.52-3.87,2.46-3.17,7.04.35,9.15,1.41,1.06,2.81,1.76,4.22,2.11h.35c2.46,1.06,4.57,2.11,7.39,2.46,3.17.7,6.33,1.41,9.85,1.76,5.98,1.06,9.85,1.41,14.77,2.11,2.11,0,2.46,0,5.98.7,2.46.7,4.92,1.41,7.39,2.46,1.76.7,3.17,1.41,4.57,2.46,2.81,1.76,2.81,1.41,4.92,3.52h0v1.76h-.7v.7s-1.06.35-1.41.7c-.7,0-1.06.35-1.41.35-3.87,1.41-8.09,1.06-14.07,1.06h-13.37c-4.92,0-9.5-.35-14.07,1.06-6.68,1.41-8.09,9.5-1.41,11.96,1.06.35,1.76.7,2.81.7,2.46.7,4.92,1.06,7.39,1.76,4.22.7,4.57.35,8.09,1.41,4.57.7,5.63,1.76,10.2,4.22v.7s-.35.35-.35.7c-1.41,1.06-.7.7-2.11,1.41,0,0-.7.35-1.06.35-4.22,1.41-11.61,0-17.94.35h-5.28c-2.11,0-3.87-.35-5.63.7-2.46.7-4.22,2.81-5.63,4.92-1.76,2.11-2.46,4.57-2.81,7.39v3.52s.35,1.41.7,2.11v1.41s-.7,2.46-1.06,3.87c-.7.7-1.06,1.41-1.76,2.46-1.41,1.41-2.81,3.17-3.52,5.28,0,1.41,0,2.81.35,4.57v1.41s-.35.35-.35.7h0s0,.35-.35.35-.35.35-.7.35c-4.22,1.41-8.09,2.46-12.31,3.17-1.06,0-3.52,0-6.33.7-2.11.35-3.87.35-5.63,1.06-5.63,2.11-2.81,8.09.7,10.9.7.7,1.06,1.06,1.76,1.41,3.17,1.76,8.09,1.76,9.5,2.11,2.46.35,4.92.7,7.39,1.41,1.64.47,1.88.47.7,0-1.76-.7-3.17,1.06-4.92,1.76h-2.46s-1.76,0-2.46.35c0,0-.7.35-1.06.7l-1.41,1.41s-1.06,2.11-1.06,3.17c-.35.7-.35,1.76-.35,2.46,1.41,3.52,5.28,3.87,8.09,4.57,1.06,0,1.76.35,2.46.35.47,0,.47.23,0,.7-3.52,17.59-8.79,35.17-13.01,52.76-2.46,9.85-4.92,20.05-7.39,29.9-1.41,7.04-2.81,14.07-4.57,20.75-5.28,17.94-6.33,36.93-11.61,54.87-1.06,3.52-2.46,7.74-3.17,11.61-.35,1.06-1.06,2.11-1.76,3.17-.7,1.06-1.41,2.46-2.11,3.52h0c-1.76,1.41-.7.7-2.11,1.41-1.41.35-1.06.35-3.87.35-1.76,0-3.87-.35-5.63-.35-4.92-.35-9.5-.35-14.07.7-1.06,0-2.11,0-3.17.35-1.41.7-2.46,1.41-2.81,2.81-.7,3.87,4.57,6.68,7.39,7.74,2.46.7,5.28,1.06,7.74,1.41s4.92,1.06,7.39,1.41c1.41.35,2.46.7,3.52,1.06.35,0,.35.35.35.35.35,0,.7.35,1.06.35v.7h0v.7s0,.35-.7.35h0s-.35.35-.7.35h-1.06c-2.46,0-4.92-.35-7.03-.35-2.46-.35-4.57-.7-6.68-.7-1.76,0-3.87.35-5.63.35-2.81.35-5.63.35-8.44.7-2.46.7-5.28,1.06-7.74,2.11-1.06.7-2.46,1.06-3.52,1.76-1.41,1.06-1.76,2.81-1.06,4.22,2.11,3.17,5.98,4.22,9.15,4.92,2.11.35,3.87.7,5.98.7,1.76.35,3.52.7,5.63.7,4.22.35,8.44.7,12.66,1.06,2.46.35,4.92,1.06,7.03,2.11,0,4.92-.7,9.5-1.06,14.42h0v2.81s.35,1.41.35,2.11c0,.47.23.7.7.7.7,0,.35,2.46,1.76,3.17h0s2.11.35,3.17.35c5.63,1.06,11.26,1.76,16.88,2.46h.35s.7.35,1.41.35h.7c4.92.7,6.68.7,11.96,1.76,5.98.35,7.74.35,13.37,1.41,5.98,1.41,13.01,2.46,16.53,2.81,5.98,1.06,11.61,1.76,17.24,2.81,4.92,1.06,9.85,1.41,14.77,2.81,2.11,1.06,4.57,1.41,7.03,1.76,1.06.35,1.76.7,2.81.7.35,0,.7-.35,1.06-.35,1.41.35,3.52-.7,3.52-2.81.7-5.98,2.11-18.64,2.81-21.46,1.06-8.09,2.81-16.53,4.22-24.62.7-3.87,1.06-7.74,1.76-11.61,1.41-7.39,3.52-14.77,5.63-22.16,2.11-7.39,3.87-13.72,6.68-19.35,2.46-6.68,5.98-14.42,8.09-19.7.35-.35.7-.7,1.41-1.76,1.06-.7,1.41-1.06,1.76-1.41.7-.35,1.06,0,2.81-.35,0,0,.35,0,.7.35h.35s1.06,0,1.41.7c.7.7,4.92,3.87,8.79,7.74,4.22,5.28,6.68,8.09,10.2,13.37,3.17,4.92,5.63,10.2,8.44,15.13,1.41,1.76,2.46,3.52,3.52,5.28,2.11,3.52,3.87,7.39,5.98,11.26.7,1.41,1.41,2.46,2.11,3.87,0,.35,0,1.06.35,1.41,1.06,2.11,1.06,1.76,1.76,4.22h-1.76s-2.81.35-4.22,1.06c-1.41.35-2.46.35-3.52.7h-1.76s-2.11.35-3.17.7c-1.41.35-2.11,2.11-2.11,3.52.35,4.92,5.98,5.98,9.5,7.39.35,0,.7.35,1.06.35,5.98,2.81,12.31,4.57,18.64,6.33,2.81.7,5.63,1.76,8.44,2.46,2.46.7,4.57,1.76,7.03,2.46,4.22,1.41,5.63,2.11,9.85,4.92,2.46,1.41,2.11.7,3.52,2.46,1.06,1.06.7.7,1.76,2.46v1.41s-.7,1.76-.7,2.11c-1.41.7-2.46,1.41-3.52,2.11-2.11,1.06-4.57,1.06-7.03,1.41-1.76.35-3.52.7-5.63,1.06-2.11.35-3.87,1.41-4.92,3.87,0,1.41-1.06,2.81-.7,4.57.7,1.41,1.76,2.11,3.17,2.81,0,.35.35.35.35.35.35.7,1.06,1.41,2.11,1.76.35,0,.7.35,1.06.35.7.35,1.76.35,2.46.7,1.41.35,2.46.35,3.87.35,2.11,4.22,4.22,8.44,6.68,12.66,3.52,6.68,7.74,12.66,12.66,18.64,1.41,2.11,3.17,3.87,4.57,5.98.7.7,1.41,1.76,2.46,2.11h.35c2.11,1.41,3.87,2.46,5.98,3.17,1.76.7,3.87.7,5.63,1.41,2.46,0,4.92,1.41,7.03,1.76,2.11.7,4.22,1.06,6.33,1.41,4.22,1.06,8.44,2.46,12.66,3.52,5.28,1.06,10.55,2.46,15.83,3.52,3.87,1.41,8.09,2.81,11.96,3.87,3.17,1.06,6.33,2.11,9.5,3.17,2.46,1.06,4.92,1.76,7.39,2.46,1.06.35,3.87,1.76,6.68,2.81,3.52,1.41,7.39,3.17,11.61,4.92,3.17,1.41,5.98,2.81,9.15,3.87h.35v.35c1.41.7,2.11,1.41,3.17,1.76.7.7,2.11.7,2.81,0,2.11.35,3.87-1.76,3.17-3.87-.35-1.76-1.06-3.52-1.76-4.92-.7-1.41-.7-2.81-1.06-3.87-.7-2.46-1.76-4.92-2.81-7.04-.7-1.41-1.41-2.81-2.11-3.87-.7-1.41-1.41-2.81-2.11-4.22-1.06-2.81-2.11-5.28-3.52-7.74-1.06-2.46-2.11-4.57-3.52-7.04-1.41-3.87-2.81-7.74-4.92-11.26-4.92-8.79-9.15-18.29-13.37-27.79-5.63-10.55-10.9-21.81-16.18-33.06-2.81-4.92-5.28-10.2-8.09-15.48-4.22-7.39-8.79-14.77-11.96-22.51-1.41-3.87-3.52-7.04-5.28-10.55-.35-.35-.35-1.06-.7-1.41-1.06-2.11-2.11-4.22-3.17-6.33-.35-.7-.35-1.06-1.06-1.76-1.06-2.81-2.46-5.98-4.22-8.44-2.46-4.22-4.22-8.44-6.33-12.31-2.81-4.92-5.28-9.5-7.39-14.42-2.46-4.92-4.92-9.85-7.74-14.42-1.76-2.81-3.52-5.63-4.92-8.44-1.76-3.52-3.17-6.68-4.57-10.2,0-.35,0-.7-.7-1.06,1.06-1.06,2.46-1.76,3.52-2.81,2.46-2.46,2.81-2.46,5.63-4.22,2.81-1.76,5.63-3.52,8.44-5.28,2.46-1.41,4.92-2.81,7.39-4.22,1.41-1.06,2.81-2.11,4.57-3.17,1.17-.7,1.41-.7.7,0,4.57-2.46,8.79-5.28,13.01-8.09.7-.35,1.06-.7,1.41-.7,3.87-2.46,7.74-4.92,11.26-7.74,1.76-.7,3.17-1.76,4.92-2.46,3.87-2.81,7.74-5.28,11.61-7.74,5.98-3.87,11.96-7.74,17.59-11.61,7.74-5.28,15.13-10.9,22.51-16.18,1.76-1.41,3.87-2.81,5.63-4.22.35,0,1.06-.7,1.41-.7,5.98-4.22,11.26-7.74,17.94-13.01,4.22-3.17,6.68-4.92,10.2-7.74,1.06-.7,2.11-1.76,3.17-2.46,1.06-.7,1.76-1.41,2.81-2.11,1.06-1.06,2.11-1.76,3.52-2.81.7,0,1.41-1.06,2.46-1.76,2.11-1.76,3.87-3.52,5.28-5.28.35-.35.35-.7.7-1.06.7-.35,1.06-1.06,1.41-1.41.35-.35.7-.7,1.06-1.06.35,0,.7-.35,1.06-.35,1.76-1.06,3.87-2.11,5.63-3.87.7-.7,1.41-1.41,1.76-2.46h0c1.76-1.41,3.52-2.46,5.28-3.52,1.41-.7,2.46-1.76,3.52-2.81.7-.7,1.06-1.41,1.41-2.11,1.76-4.22-1.41-8.79-5.98-8.79l-.35,1.05ZM2657.15,1105.2h-1.06s.7-.35,1.06-.35h0v.35Z"/>
      </g>
      <path class="cls-2" d="M3547.07,501.25s-.7,2.46-.7,3.87c-.7,1.41-1.06,3.17-1.41,4.57-1.41,5.98-3.17,11.96-4.92,17.94-2.81,9.5-4.57,19.35-7.39,29.2-1.06,3.52-2.81,6.68-3.52,10.55-1.06,3.17-1.76,6.33-2.46,9.5-1.06,3.17-2.11,6.68-3.17,9.85-5.63,17.59-9.5,35.53-14.42,53.11-4.57,15.48-9.15,31.31-13.72,46.78-2.11,8.09-3.87,16.53-6.33,24.27-1.41,4.92-2.81,10.2-3.87,15.13-1.06,3.87-2.11,7.74-2.81,11.61-1.76,6.33-3.52,12.66-5.28,18.64-2.46,11.96-5.28,23.57-8.09,35.53-1.06,3.87-1.76,8.09-2.46,11.96-.7,3.52-1.41,7.04-1.76,10.55-.7,4.92-2.11,11.26-2.46,14.42-.7,4.22-1.76,8.44-2.46,13.01-1.06,5.28-2.11,9.5-2.46,14.07-.35,4.22-.7,8.09-1.41,12.31-.35,2.81-.7,4.92-.7,6.68-.35,3.87-.7,7.74-1.06,11.61-.7,4.92-1.41,8.44-1.76,12.31-.7,3.17-.7,3.87-1.06,6.68-.35,3.52-.7,7.04-1.41,10.2-1.06,7.04-1.76,11.96-2.46,17.24-.7,2.46-1.41,4.57-1.76,7.04-.35,2.46-.7,4.92-1.41,7.04,0,.35.35.7.35,1.06s-.35,1.06-.7,1.41c0,0-.35,0-.35.7s-.35,1.06-.7,1.41c0,.7-.35,1.41-.7,2.11-.7,1.41-1.41,2.81-2.46,4.22s-3.52,2.11-5.28,1.76c-1.41,0-2.81,0-3.87-.7-1.06-.35-1.76-.7-2.81-1.41-1.06,0-1.76-1.06-2.46-1.41-1.06-.7-2.11-1.41-2.81-2.11-4.92-3.52-9.5-7.04-14.42-10.2-2.11-1.76-4.22-3.17-5.98-4.57-4.57-2.81-9.15-5.28-13.72-8.09-2.11-1.41-4.22-2.46-6.33-3.52-3.87-2.46-7.74-4.57-11.96-7.04-3.87-2.11-7.74-4.57-11.61-6.68-3.52-1.76-6.68-3.52-10.2-5.28-8.44-4.22-16.88-8.79-25.33-12.66-4.22-2.11-5.98-2.46-10.2-4.57-.35-.35-.7-.35-1.06-.35-2.81-1.06-4.92-2.46-7.03-4.22-1.76-1.76-2.11-1.41-4.22-3.87-.35-.7-.7-1.41-1.06-2.11-.7-1.76,0-3.52,1.41-4.57,1.41-1.06,2.81-1.41,4.22-1.41.35,0,.7-.7,1.41-1.06,1.06-.7,2.46-.7,3.52-.7h2.46c2.81,0,5.28.35,7.74,1.06,2.46,0,4.57.35,7.03.35h6.68l-.35-.7h0s-.35-.7-.7-1.06c-4.22-2.81-6.33-3.52-11.96-5.28-4.57-1.06-6.33-1.76-9.5-3.17-1.06-.35-2.46-.7-3.52-1.41-1.76-1.06-2.46-3.17-2.81-5.28-.35-1.76.7-2.81,2.11-3.17.7-.35,1.06-.7,1.41-.7,3.87-2.11,8.09-.7,11.96-.7,4.57.35,6.33,1.06,9.5-.35h.7c0-.35.7-.7,1.06-1.06h.35v-.7s.35-.7.7-1.06c0-7.74,1.76-13.37,2.46-18.99.35-4.57,1.41-9.5,2.46-14.42,0-1.41.35-3.17.7-4.57.7-5.63,1.76-11.26,3.17-16.53,1.76-8.09,4.22-15.83,5.98-23.92.35-1.06,1.06-1.76,1.76-1.76,1.06-1.06,2.11-1.76,3.52-1.76,2.46,0,4.57.7,7.03.7h9.5c2.46,0,4.92.35,7.39,0,1.06-.35,2.11-.35,2.81-.7h0s0-1.06-.35-1.41v-.35c-4.22-2.46-5.63-2.46-10.55-4.22-3.87-1.06-7.39-2.46-11.26-3.17-.7-.35-1.41-1.06-1.76-1.76,0-.35-.7-.7-.7-1.06-.35-.7,0-1.41,0-2.11h.35c1.06-3.17,1.41-6.68,2.11-9.85,0-3.52.7-7.04,1.06-10.55-1.06-.7-2.11-1.41-3.17-2.11-4.57-3.17-8.79-6.33-13.37-9.5-6.33-4.57-12.66-8.79-19.35-12.66-5.63-3.17-11.26-5.63-16.88-8.44-7.03-3.52-14.07-6.68-21.46-9.85-7.39-3.52-12.66-5.63-21.1-8.79-6.33-1.76-12.31-3.87-18.29-5.28-7.74-1.76-15.13-3.52-22.86-5.28-3.17-.7-6.68-1.41-9.85-2.46-1.06-.35-2.46,0-3.87-.7,0,1.06,0,2.11-1.06,3.17-.35,1.76-1.06,3.52-1.76,5.28-1.41,4.92-2.81,10.2-3.87,15.13-1.76,7.39-3.52,14.77-4.92,22.16-2.11,10.2-4.57,20.4-6.33,30.6-2.11,11.96-3.17,23.57-4.92,36.93-1.41,11.26-3.52,22.16-4.22,32.01v.7s-.35,1.76-.35,2.46c-.35.7-.7,1.76-1.06,2.46-.7.7-1.41,1.76-2.11,2.11-1.06.35-1.76.7-2.81.7-2.46.35-4.57,0-7.03-.7-1.41,0-3.17-.7-5.63-1.41-4.92-1.06-9.85-2.81-14.77-4.22-4.22-1.41-8.44-2.46-12.66-3.52-5.28-1.76-10.55-3.87-15.83-5.63-6.33-2.46-13.01-4.57-18.99-7.39-14.42-6.33-32.01-15.48-44.67-21.46h-.35s-1.41-.7-2.11-1.06c-.7-.35-1.41-.7-2.46-1.41-1.41-1.06-3.17-2.11-4.22-3.52-2.11-3.52,0-6.33,3.52-7.39,2.46-.35,4.92.35,7.03.7h-.7c-3.52-1.41-7.39-2.46-10.55-4.92-1.06-1.41-1.06-3.52,0-4.92,1.06-1.06,2.46-1.41,3.87-1.76,8.09-1.76,16.18-.35,24.27.35,6.33,1.06,13.72,2.46,17.59,2.11,1.76-.35,1.41-.35,2.11-.7.47-.23,1.17-.7,2.11-1.41,1.41-1.06.35-.35.35-.35,0-.35-.35-.7-.35-.7-.7-1.76-1.76-3.17-2.46-4.22,0-.35-.35-.35-.35-.35-1.76-2.11-5.63-4.22-8.09-4.92-4.22-1.76-8.44-3.17-13.72-5.98-2.81-1.41-7.74-3.87-6.68-7.74,1.41-3.87,4.92-5.98,8.79-5.98,4.92,0,5.63.7,10.2,1.06h1.06s-.35-1.06-.35-1.41v-2.81c.35-7.39,1.06-14.07,2.11-21.1,1.06-9.15,2.46-18.29,4.22-27.79,1.41-7.04,2.46-14.07,3.52-21.1,2.11-12.66,4.57-24.62,7.39-36.93,1.76-7.74,3.52-15.83,5.28-23.22,4.22-15.83,7.74-31.66,12.66-47.13,0-.35.35-.7.35-1.06.7-5.28,1.06-10.55,1.06-15.83,0-2.11,1.41-3.17,3.17-3.17,2.81-1.06,7.39-2.11,11.26-1.76,3.52.35,3.17,0,6.68-1.41h1.06c1.76-2.11,1.41-1.76,2.46-3.17l1.06-1.06h0v-.7h0s0-.35-.35-.35c-2.11-2.11-1.76-1.76-4.22-3.52-.7-.7-2.81-2.46-5.63-3.87-3.17-1.41-6.68-2.81-9.15-4.92-1.06-1.06-1.41-2.46-1.76-4.22,0-1.06-.35-2.11,0-3.17,0-1.76.7-3.52,1.41-4.92,1.06-2.11,2.46-3.87,3.52-5.98,0,0-.35,0-.35-.7-1.41-.7-2.81-1.41-3.87-2.11-3.87-1.76-7.39-3.87-10.9-5.63-1.06-.7-2.11-1.41-3.52-2.11-.35-.35-1.41-.7-1.76-1.06-1.06-1.41-.7-3.87.7-4.92.7-.7,2.11-1.06,3.17-1.41,2.46-1.06,5.28-1.06,8.09-.35,5.28.7,10.55,1.41,15.83,2.46h4.92c5.28-1.06,5.63-1.41,7.03-3.52,1.41-2.11.7-.7,1.41-3.17h0v-.7s0-.7-.35-1.06c-.35,0-1.06-.7-1.76-1.41-1.76-1.41-3.17-2.11-4.92-2.81h-.35s-3.17-1.41-4.92-1.76c-.7-.35-3.87-.35-7.03-.7-3.87-.7-4.57,0-9.15-1.06-2.11-.7-4.22-1.06-6.33-2.11-2.46-1.41-4.92-2.46-6.33-4.92-1.06-1.76-.7-4.22.7-5.63,1.06-1.06,2.46-1.76,3.87-2.11,1.76-.7,3.52-.7,5.28-.7,3.52,0,7.03.7,10.55.7,2.35,0,2.58-.12.7-.35-2.81-.35.35,0,.7-.35h0l-.35-.7c-.7-.35-.35-.35-2.11-.7-3.17-1.06-6.33-1.41-9.5-3.17-2.46-1.06-4.92-2.81-6.68-4.92-1.76-2.11-2.11-4.92-.7-7.03,3.17-5.28,12.66-1.76,17.24-.7,3.17.7,7.03,1.76,8.09,1.76,2.81,0,5.98-.35,8.79.35,1.06,0,.7,0,2.81-.7,2.81-.7,1.76-.35,4.22-1.41.35-.35.7-.35,1.06-.7.35,0,.7-.35.7-.7.7-.7,1.06-2.11,1.06-2.81h0s0-1.41-.7-2.11c-.7-1.06-1.76-1.76-2.81-2.46-7.03-6.33-11.96-9.15-20.05-16.88-.7-.7-1.76-1.76-2.81-2.46-1.06-.35-1.76-1.41-2.46-2.11-.47-.47-.59-.7-.35-.7.35,0-.35,0-.35-.35-1.76-2.11-2.11-4.57,0-6.68,1.06-1.06,2.46-1.41,3.87-1.41,2.11-.35,4.22,0,6.33,0,5.98.35,11.61,1.41,17.59,2.46,5.28,1.06,10.55,2.46,15.83,4.22,4.57,1.06,8.79,2.11,13.37,3.17,2.11.7,4.22,1.41,6.33,2.11,11.61,1.41,23.22,4.22,34.47,7.39,3.52,1.06,7.39,2.11,10.9,3.17s7.39,1.76,11.26,2.81c3.52,1.06,7.39,1.41,10.9,2.81,3.87,1.06,4.22,1.41,5.98,2.11,2.11,1.06,4.22,1.06,3.87,3.87,0,.7-.35,1.06-.7,1.06,0,1.06-.35,1.76-.35,2.46-.7,1.41-1.41,3.17-2.11,4.92-1.06,3.17-1.76,6.33-3.17,9.5-1.06,3.52-2.46,7.03-3.52,10.55-2.11,7.39-4.57,14.77-6.68,22.16-1.76,6.68-3.17,13.37-4.92,19.7-2.81,10.55-5.28,21.1-7.74,31.66-3.52,15.48-6.33,30.6-8.79,46.08,11.61,2.46,23.22,5.63,34.82,9.15,5.98,1.76,11.96,3.52,17.59,5.28,7.74,2.81,15.13,5.63,22.86,8.79,25.33,10.2,49.6,23.22,74.57,34.47.7-1.76,1.06-3.52,1.76-5.28,1.06-2.81,1.41-5.63,2.11-8.79,1.06-4.57,2.11-9.15,3.17-13.72,1.06-5.63,3.17-11.26,4.92-16.88,1.41-5.63,3.17-11.26,4.92-16.53,1.41-4.92,2.46-9.85,4.22-14.42,3.52-9.5,6.33-18.99,9.15-28.49,0-2.11.35-4.22.35-6.68-.94-1.64-2.11-3.17-3.52-4.57h-.35s-3.52-2.46-5.28-3.52c-1.41-.35-2.81-1.06-4.57-1.41-2.11-1.06-4.22-2.46-6.33-3.87h-.35s0-.35-.35-.35h0s-1.76-2.11-2.11-3.52c0-1.41.35-3.17,1.76-4.22,1.06-.35,2.11-.7,3.17-1.06,2.81-.7,5.98-.35,8.79-.35,3.52.35,6.68.7,9.85.7,2.81,0,5.63-.35,8.79-.35,2.46,0,4.92.35,7.39,0,1.06,0,2.11-.35,3.17-.7,0-.35,0-1.06-.35-1.41h0s-.35-.35-.35-.7c-1.06-2.11-.7-1.06-1.76-2.46-.35,0-.35-.35-.35-.35-1.41-1.06-2.81-1.76-4.22-2.46-1.41-.7-3.17-1.41-4.57-2.11-3.52-1.06-7.03-2.46-10.2-3.52-2.81-1.41-9.5-2.81-13.72-5.28-2.46-1.06-4.57-2.81-5.28-3.52-2.46-2.46-1.41-5.28,1.76-5.98h5.28c2.11.35,4.22,0,5.98.35h3.87c2.11.35,1.41.35,3.17.35,1.41,0,2.81.7,4.22,1.06,1.41,0,2.81.35,4.22.7,1.06,0,1.76,0,2.81.35h1.41c2.81.35,5.98,1.06,8.44,1.41,3.17.35,5.98,1.06,8.79,1.41,7.03,1.41,14.42,2.81,21.46,4.92,1.76.35,3.87.7,5.28,1.41,3.87,1.06,7.39,1.76,10.9,2.81,3.87,1.41,7.39,2.81,10.9,4.22,3.17,1.06,5.98,1.76,9.15,2.81,2.81,1.06,5.98,2.46,9.15,3.52,3.52,1.76,7.39,2.81,10.9,4.22,1.76.7,3.52,1.41,5.28,2.11h.35c2.11.7,3.87,1.41,5.63,2.46,6.33,2.11,12.31,4.92,18.64,7.39,4.22,1.64,4.46,1.88.7.7-5.63-1.76.35,1.06.35,1.41h.35l-.7-.35Z"/>
      <path class="cls-2" d="M2358.51,1099.93c-.35,2.11-3.17,3.52-5.28,2.46-4.22.35-8.44,0-12.31,0-4.57,0-9.15-.7-13.72-.7-7.74-.35-15.48-.7-23.57-.7-5.63,0-11.26-1.06-17.24-1.76-4.57,0-9.15,0-13.72-.7-5.98-.7-11.96-1.06-17.94-1.76-5.63-.7-11.26-1.76-16.88-2.46-12.66-1.41-24.97-2.81-37.64-4.22h-2.11s-2.11-.35-2.81-1.06c-.35-.35-.7-.7-1.41-.7s-1.76-1.06-2.46-1.76c-1.76-1.76-2.46-4.92-.7-7.04,1.06-1.76,2.81-2.46,4.57-3.17,1.76-1.06,3.87-1.06,5.63-1.41,2.11,0,4.22-.7,6.33,0,3.87,0,7.74.7,11.96.7,0-.35.35-.35.7-.7h-.7s-3.52-.7-5.28-1.06c-2.46-.35-4.57-.35-6.68-.7-4.92-1.06-10.9-1.76-10.55-8.09,0-5.28,6.33-7.04,10.55-7.74h.7c-.7-1.76-1.41-3.52-2.11-5.28-2.46-6.68-4.92-13.37-7.39-19.7-1.76-4.22-3.52-8.79-4.92-13.01-1.41-3.17-2.81-6.33-4.22-9.5-2.11-4.92-3.17-7.04-4.57-10.55-2.46-5.63-5.28-11.26-7.39-17.24-3.17-6.68-6.68-13.01-9.15-20.05-1.41-3.87-3.17-7.39-4.92-11.96-.7,0-1.06,0-1.76-.7,0-.35-.7-.7-1.06-1.06-.7-1.41-1.41-3.17-1.76-4.57-3.52-7.74-6.33-15.48-9.15-23.57-.35-.7-1.06-2.46-1.06-2.81-6.68.35-13.01.7-19.7.7h-6.68s-2.81,0-4.22-.7c-1.06-.7-2.46-1.76-2.46-3.17s0-2.81,1.06-3.87c1.06-1.06,2.11-1.76,3.17-2.81,4.57-3.52,10.55-4.22,15.83-5.28,2.11-.35,3.87-.7,5.63-1.06-1.06-3.52-1.76-5.98-2.81-7.74-1.41-3.17-2.81-6.68-3.87-10.2-1.06-2.81-2.11-5.28-3.17-7.74-.35-1.76-1.06-3.17-1.76-4.57-.47-1.64-.82-2.7-1.06-3.17-1.41-2.81-2.81-5.98-3.87-8.79-1.41-2.46-2.46-5.28-4.22-9.85-2.81-6.33-5.63-14.77-7.39-18.29-1.41-3.52-3.52-7.04-5.28-10.55-1.76-4.22-4.22-8.09-5.98-12.31-1.06-2.46-2.46-4.57-3.17-7.04-1.41-2.81-.7-1.41-1.76-3.52-4.57-9.85-9.85-18.99-14.42-28.84-3.52-6.33-6.33-13.37-10.2-19.35-2.11-3.17-3.52-6.33-5.28-9.5-1.06-2.11-2.11-3.87-3.52-5.63-1.06-1.06-1.76-2.46-2.81-3.87-1.06-1.76-1.41-3.52-2.11-4.92-.7-1.76-1.41-3.17-2.11-4.92-.35-1.06-.7-2.11-.35-3.17.35-1.41,1.41-2.46,2.81-2.81,1.06-1.06,2.81-1.41,4.22-1.76,1.41-.7,4.92-2.11,8.79-4.22s7.74-4.22,11.26-6.68c2.46-2.11,2.11-1.41,3.17-3.52h-.35s0-.35-.35-.7c-1.41-.7-.7-.7-3.87-1.06-1.76-.35-3.52-.35-5.28-.35-1.41,0-2.81-.35-4.22,0h-.7c-4.57.7-9.15.35-13.72.7h-1.41c-2.46.35-4.92,0-7.04-1.06l-.7-.35c-.7,0-1.76-.35-2.46-1.06l-1.06-1.06c-1.06-2.11-2.11-3.87-3.17-5.63-2.46-3.87-4.22-7.39-6.33-10.9-7.39-11.61-15.13-22.51-22.16-34.47-3.17-5.28-6.33-10.2-9.85-15.48-1.06,1.06-1.06,1.41-1.76,2.11-2.81,4.92-4.92,7.04-7.74,10.9-1.41,2.11-3.17,4.22-4.92,6.33-1.76,2.11-3.87,4.22-5.63,6.33-4.57,5.63-7.74,9.85-12.66,16.53-3.87,4.92-6.33,8.09-10.55,13.72-2.81,3.87-5.98,7.39-8.79,10.9-2.46,3.52-7.04,10.55-10.9,16.18v1.06s-1.76,3.52-2.46,5.28v.7s-.7,1.41-.7,2.46c-.7,3.52-1.06,7.04-2.11,10.55-3.87,13.01-7.04,26.73-9.5,40.1-.7,4.22-2.11,8.44-2.81,12.31-.7,3.17-1.41,5.98-2.11,8.79-2.46,9.15-4.57,18.29-6.33,27.44-1.06,5.63-2.46,10.9-3.52,16.53-1.06,4.57-1.76,9.15-3.17,13.72-1.41,5.28-2.11,10.55-3.17,15.83-.7,3.52-.82,3.75-.35.7-1.41,9.15-2.81,17.59-4.57,26.73,0,2.81-1.06,5.63-1.41,8.44-.7,3.17-1.76,11.61-3.17,17.94-1.76,6.33-2.81,13.01-4.22,19.7-1.06,9.5-3.17,18.64-5.28,27.79-1.06,5.28-1.76,10.55-2.81,16.18-.7,2.46-1.06,5.28-1.76,8.09-.7,3.52-1.41,7.04-2.11,10.2-.7,3.17-.7,6.68-1.76,9.85,0,1.76-.35,3.87-.7,6.33-.7,3.17-1.41,6.33-2.11,9.85v1.06s-.35.7-.35,1.06c-.35,4.57-1.06,8.79-1.41,13.72,0,1.41-.35,3.17-.35,4.57v3.17c1.06-2.46,2.46-4.57,3.52-7.04,3.17-6.33,6.33-12.31,9.5-18.64,1.76-3.87,3.87-7.39,5.98-10.9,2.46-4.57,4.92-8.79,6.68-13.37,3.52-8.09,7.74-16.18,11.96-23.92,3.52-6.33,7.39-13.01,11.61-19.35,3.17-5.28,5.98-10.55,8.79-15.83,1.41-2.11,3.17-4.22,4.22-6.33,2.11-3.17,3.52-6.33,5.28-9.5,1.06-1.76,2.46-3.52,3.52-5.28,0-1.06,1.06-1.76,1.76-2.46.35-1.41,1.06-2.46,2.81-2.81h3.87c1.76,0,3.52,0,5.28-.35,3.17,0,3.52.35,4.57.35h7.39c3.87,0,2.81,0,4.92-.35h.35s1.06-.35,1.41-.7c3.17-1.06,6.33-1.76,9.15-2.81,1.06-.35,2.11-.7,2.81-1.41h.35s.35-.7.35-1.06c-.35-.7-.7-1.06-1.76-2.81-.35-.7-1.06-1.41-1.76-1.76h-.35c-2.81-1.76-1.06-1.06-3.52-2.11-1.76,0-3.17-1.41-4.92-1.41-3.52-.35-7.04,0-10.55-.7-2.11,0-4.57-.7-6.33-2.11-3.52-2.11-4.57-7.04-.7-9.15,1.76-1.06,4.22-2.11,6.33-2.46,3.87-1.06,2.46-.35,5.98-1.06,0-.35.35-.35.35-.35h.35v-1.06s0-.35-.35-.7c0-.35-.35-.7-.35-1.06-.35-.7-.7-1.06-1.06-1.76,0,0-.35,0-.7-.7-1.06-.7-2.11-1.41-3.17-2.11h0s-2.81-.7-3.87-1.41c-2.46-1.76-4.92-3.87-5.63-6.33-.7-2.46.35-5.28,2.81-5.98.7-.35,1.76-.35,2.81-.35,1.06-.35,2.46-.7,3.52-.7h9.15c4.57-9.15,9.85-17.94,14.77-26.38,3.17-5.28,6.68-10.2,9.85-15.48,5.28-8.09,9.5-16.18,14.07-24.27,0,0-.35-.7-.7-.7-.7-.35-1.06-.7-1.76-1.06-3.52-.35-7.04-.35-10.55-.7-7.04-.35-14.42-.35-21.46,0-3.17,0-4.92-3.52-3.52-5.98.35-1.06,1.06-2.11,2.46-2.46,4.92-1.41,9.85-1.76,14.77-2.11,4.22,0,8.44,0,12.66-.7,1.76,0,3.52-.35,5.98-.7,1.06-.7,2.81-1.06,4.22-1.41,2.81-1.41,4.22-1.76,8.09-4.22,1.41-1.41,2.46-2.81,3.87-4.22,0-.7.7-1.41,1.41-2.11h0c1.06-2.11,2.11-3.52,3.17-5.28,1.06-1.76,2.11-3.52,3.52-4.57.7-.7,1.06-1.41,1.41-2.11.7-1.06,1.41-1.76,1.76-2.46.7-.7,1.06-1.41,1.41-2.11.7-.35,1.06-.7,1.06-1.06.7-.7,1.06-1.41,1.76-2.46.47-.7.7-.82.7-.35,0,.7.35-.7.7-1.06.35-.7,1.06-1.06,1.76-1.41h.35s1.06.35,1.06.7c.35,0,.7.7.7.7.35.35.7.7,1.06.7,1.06,1.41,2.11,2.46,2.81,3.87.35.35.35.7.7,1.06.35.35.7.7,1.06,1.41.7.7,1.41,1.76,2.11,2.81,0,.7.7,1.06.7,1.41h0v.7s0,.35.35.7h0c2.81,3.52,4.22,6.68,5.98,10.55,2.11,4.57,4.57,9.15,6.68,13.72,2.11,4.92,4.92,9.85,7.39,15.13,2.81,5.63,5.28,11.26,8.09,16.88,3.17,5.98,6.68,11.96,9.85,17.94,1.06,2.11,2.81,3.87,3.87,6.33.7,2.11,2.11,3.87,3.17,5.63,1.06,1.76,1.76,3.52,2.81,4.92.35,1.06.7,1.76,1.41,2.81.7.7,1.41,1.76,2.11,2.81.7,1.06.7,2.46.35,3.52-.35.7-.7,1.06-1.06,1.76-1.41,1.76-2.46,3.52-3.87,5.28-1.41,2.11-2.81,3.52-4.22,5.63-1.76,2.46-3.87,5.28-5.98,8.09-2.46,3.17-4.92,6.68-7.39,9.5-.35.35-3.17,4.57-5.28,7.39-2.11,3.17-4.22,5.98-6.33,8.79-5.98,7.74-11.26,15.83-16.88,23.57-4.22,5.98-8.09,11.96-11.96,17.94-2.11,3.87-4.22,7.39-6.33,11.26,4.57-.7,9.5-1.06,14.07-1.41,5.28,0,10.55-1.06,15.83-1.41,3.52,0,6.68,0,9.85-.35,3.87,0,7.39-.7,11.26-.7h7.74c2.46,0,4.92-.35,7.39-.35,5.63.35,10.9,0,16.53.35,2.81,0,5.98.7,9.15,0,2.46,0,5.28.35,7.74.7,1.06,0,2.11,0,3.17.35,1.41-.7,3.17-.7,4.57.7,0,0,.7,0,.7,1.06,10.2,15.13,16.53,34.82,22.86,48.19,3.52,7.04,7.04,13.72,9.85,20.75,1.41,2.11,2.46,4.57,3.17,7.04.7,1.06.7,2.81,0,3.87h0c.7,2.46-.7,4.92-2.81,5.63h-2.11s-.35.35-.7.35c-1.41.7-2.81.35-4.22.7h-11.96c-5.63.35-10.9.35-16.18.7-4.57,0-8.79,0-13.01.35-2.46,0-4.57-.35-6.68-.35-5.98.35-11.96.7-17.94,1.06h-8.79c-4.92.35-9.85.35-14.77.7-7.74,0-15.48,0-23.22.7h-20.75c-5.28.35-10.55,1.06-16.18,1.41h-18.64c-6.33.35-13.01,1.06-19.35,1.41,0,.7-1.06,1.76-1.41,2.46-1.06,1.41-2.11,2.81-3.17,4.22-4.22,5.98-8.44,11.96-12.66,17.59-2.81,3.87-5.28,8.09-8.09,11.96-2.11,3.17-4.22,6.68-6.33,9.85h0s-1.41,2.11-2.11,3.17c0,.35-.35.7-.35,1.06-.35,0-.35.35-.7.35-.7,1.06-1.06,2.11-1.76,3.17-.35,0-.35.35-.7.35,0,.35-.7,1.06-1.06,1.41-1.06,1.41-1.76,2.46-2.11,2.81-1.06,1.06-2.11,2.11-3.52,2.11h-2.46s-1.41.35-1.76.35c-1.76.35-3.52,0-5.28.35-5.98.35-11.61-.35-17.59,0-4.57,0-9.5,0-14.07.35-4.22-.35-8.09,0-12.31,0-2.11,0-4.57.7-6.68.7h-7.39c-.7.35-1.76.35-2.81.35-4.22.35-8.79.35-13.01.7-9.5.7-18.64,2.11-28.14,2.81h-6.68s-2.11,0-2.81.35c-4.92.35-8.79.7-14.07,1.76-8.09.35-16.18,1.06-23.92,1.76-10.2,1.06-17.59,2.46-28.14,3.17-8.09.7-14.07,1.76-21.46,3.17h-1.41s-2.46.35-3.52.35h-3.52c-4.57,0-10.9,0-15.48-2.46h-.7s-2.46-1.76-3.52-3.17c-.7-.94-.82-1.29-.35-1.06v-.7s0-.35.35-.7c0,0,.35,0,.35-.35,0-.7.35-1.06.7-1.06.23,0,.23-.23,0-.7-.35-.7,1.06-.7,1.76-1.06,0,0,0-.35.7-.35,1.06-.7,2.46-1.06,3.52-1.76,5.98-1.41,11.61-3.17,17.59-4.22,4.57-.7,9.15-1.41,14.07-2.11,4.92-.35,9.5-1.06,10.9-1.41,3.52-.7,8.79-1.76,9.85-2.11.35,0,.35-.35.35-.35-.7-.7,0,0-2.11-1.41h-.35c-3.52-1.41-4.92-1.41-8.79-1.76-4.57,0-9.15-.7-13.72-1.06-3.17-.35-6.33-.7-9.15-2.11-2.11-1.06-4.92-3.87-2.81-6.33,1.06-1.06,2.46-1.76,3.87-2.81,1.06,0,2.11,0,3.52-.7,1.06-.35,2.11-.7,3.52-1.06,3.17-.7,5.98-1.76,9.15-2.46,3.87-.7,8.09-1.41,11.96-2.11h0s1.06-.7,1.41-.7,1.41-.35,1.76-.35c1.41-.35,2.81-.35,4.22-.35,1.76-.35,3.87-1.06,5.98-1.06q2.81,0,5.28-.7c1.41-.35,2.81-.35,4.22-.7,2.11-.35,4.22-1.06,5.98-1.41,2.11-.7,1.41-.35,2.81-1.06,1.06-.7,1.76-1.06,2.81-1.76h0l.35-.7c.35-.35.35-.7.35-1.06.35,0,.35-.35.35-.7v-.7h-.35c-.35-.35-2.81-2.11-4.57-2.81-2.81-1.06-5.63-1.76-8.44-2.81-2.46-.7-5.28,0-8.44-2.11h0v-1.06s.7-2.81,1.06-4.22v-.7s-.35-.35-.35-.7v-1.06c.7-3.52,1.41-7.39,2.11-10.9.35-1.41.35-2.81.7-4.22.35,0,.35-.7.7-.7.35-1.76.7-3.52.7-5.28.7-3.87,1.06-7.39,1.41-11.26.35-3.17.35-5.98.35-9.15.35-2.46.7-5.28,1.06-8.09-2.46,0-4.57-.35-6.68-.35-7.04-.7-14.07.35-21.1.7-8.09.7-13.72,1.06-21.46,2.81-8.09,1.76-15.83,3.52-23.92,5.63-5.63,1.06-11.26,2.46-16.53,4.22-3.87,1.06-7.39,2.11-10.9,3.17-1.06.35-1.76.35-2.46.7-1.76.35-3.87,1.06-5.63,2.11-.7,0-1.41,0-2.11.7-.35,0-1.06,0-1.41.35h-.35v.35h-.7l-.35.35s-.23.12-.7.35c-.7.35-2.81,1.06-3.87,1.76-1.76,1.06-3.52,2.11-4.92,3.17-1.76,1.41-3.17,2.46-4.92,3.87-1.41,1.06-3.17,2.11-4.22,3.52-.7,1.06-1.41,1.76-2.11,2.81h0s-1.06,2.11-1.41,2.81c-.35,1.06-.35,1.76-.7,2.81v2.46c-.35.7-.35,1.41-.35,2.11-.35.35-.35.7-.35,1.06v1.41s-.35,2.46-.7,3.52v1.76s-.35,0-.35.7v3.87h0v1.06s-.35,2.11-.35,3.17c-.7,6.33-1.41,13.01-1.41,19.7,0,4.92-.7,9.5-.7,14.42-.35,5.63-1.41,11.61-1.41,17.59,0,5.63-1.06,11.26-1.06,16.88,0,3.17-.35,6.33-.7,9.5v1.76s0,2.46-1.76,3.17c0,.35-.35.7-1.06,1.06-3.87.35-7.74.7-11.61,1.41-4.92.7-8.79,1.06-14.42,2.11-4.57.7-8.09.7-11.61,1.41-4.57,1.06-9.5,1.76-14.07,2.81-5.63,1.06-10.9,2.81-16.18,3.87-2.81.7-5.98,1.76-8.79,2.46-.7,0-1.41.35-1.76.7h-1.41s-1.76,0-2.46.7c-.35,0-.35.35-.7.35h-1.76s0,.35-.35.35h-1.76s-3.17,1.06-4.92,1.41c-4.22,1.41-8.79,2.11-13.37,2.81-3.17,1.06-5.98,1.41-9.15,1.06-2.11,0-3.87-1.41-4.22-3.52,0-2.81,2.81-4.22,5.28-5.28,2.11-1.06,4.22-1.41,6.33-2.46v1.41s0,.35.35.35c-.35,0-.7.35-.35.7.23.23.35.23.35,0h0s.35,1.06.7.7c1.06-.35,1.76-.7,2.46-1.06.35,0,.7-.35,1.06-.7v-.7h.35s0-1.41-.35-1.41c3.17-1.06,7.04-2.11,9.5-3.52h0s.7.7,1.06.7l.7-.7s.7-1.06,1.06-1.76c.23-.47.7-1.17,1.41-2.11,1.06-1.41,1.06-2.11,1.41-3.17.35,0,1.06,0,1.06-.35.35-1.41.7-2.46,1.41-3.87.35-1.06.7-2.46.7-3.87,0-.94.12-1.17.35-.7v-2.11h0v-.7s0-.35-.35-.35v-.7s-.7-.7-1.06-.7h-.35s-.35,0-.35.35c-.35,0-.7,0-.7.7v.7c0-.35-.7-.35-1.06-.7s-1.06-.7-1.76-.7h-4.22c-3.87-.35-8.09,0-11.96-.35-1.76-.35-3.52,0-5.28-1.41-1.06-.7-1.41-2.46-.7-3.52,1.06-1.41,2.81-1.76,3.87-2.46,4.92-1.76,8.79-1.76,12.66-2.46,2.46-.35,4.92-.7,7.39-1.41.35,0,.7-.35,1.06-.35.7-.35.35-.35,1.06-1.06h.7c0-.35,0-.7.7-1.41.35-1.06.7-2.11,1.06-3.17v-.7s.35-1.41.35-2.11c.35-.7.35-1.41.7-2.11,0-.7,0-1.41.35-2.11,0-1.06.35-2.11.35-3.17.35-3.52.35-7.04.7-10.55.35-2.46.7-5.28.7-6.33.35-4.22,1.06-8.44,1.06-13.01.35-4.22.7-8.79.7-13.01v-13.01c0-4.22.7-8.09.7-12.31,0-9.85,0-19.7-.35-29.55h-1.06s-3.17-1.06-4.92-1.41c-3.87-.7-4.57,0-9.5-1.41-1.76-.35-3.17-.7-4.92-1.41-.7-.35-1.76-.7-2.81-1.41-.35,0-1.06-.7-1.76-1.41,0-.35-.35-.7-.35-.7-1.41-1.76,0-4.22,1.76-4.92,1.41-.7,2.81-1.06,4.22-1.41.35-.35.7-.35,1.06-.35,1.41,0,2.46-.7,3.87-.7,3.17-.35,6.68-.35,10.2-.35h4.22s1.76-.35,2.11-.35c-2.81-1.06-2.11-1.06-6.33-2.11-1.41,0-2.81-.35-4.57-.7-1.41,0-2.46,0-3.87-.35-1.76-.7-2.11,0-4.57,0-2.11-.35-4.57-.35-6.68-.35h-5.63c-2.46,0-4.57-.35-7.04-.7-1.76,0-3.17,0-4.92-.35-1.06,0-2.46,0-3.52-.35-1.41,0-2.81-1.06-3.52-2.46-1.76-1.41,0-3.87,1.41-4.92,1.41-.7,3.17-1.41,4.92-2.11,2.11-.35,4.22-1.06,6.33-1.76h.7c4.22-1.41,8.44-1.76,12.66-2.11,2.81-.23,3.99-.23,3.52,0h1.41s3.52-.7,4.22-.7c1.76-.35,5.63-.35,8.44-.35h7.39v-33.77c0-2.11,0-4.22-.35-6.33v-2.46s-.35-.7,0-1.06c-.35-.35-.35-.7-.35-1.41,0-3.52,0-7.39-.7-11.26,1.76-.35,3.17-.7,4.57-1.06,3.17-.35,6.33-.7,9.5-1.06,3.17-.35,6.33-1.06,9.5-1.76,1.41,0,2.81-.7,3.87-1.06,1.41-.35,2.46-1.06,3.52-1.76.35,0,.35-.35.7-.35,0,0,.35,0,.7-.35h.35l.35-.7h.35c.35,0,0-1.06-.35-1.41,0-.35,0-.7-.35-1.06,0,0,0-.35-.35-.7h0s-.35-1.06-.7-1.41h0s0-.35-.35-.35c0-.35-.35-.35-.35-.35-.35-.35-.7-.35-1.06-.7-1.76-1.06-2.81-1.41-5.63-2.11-1.76,0-3.17-.35-4.92-.35h-11.96s-1.76-.35-2.46,0h-3.87s-1.06-.35-1.76-.35c-.35-.35-1.06-.35-1.76-.7-.7-.35-1.06-.35-1.76-.7-.7-.7-1.41-.7-2.11-1.06-.7-.35-1.41-1.06-2.11-1.41,0,0-.35,0-.7-.7v-1.06s.7-1.06,1.06-1.41h0c1.76-2.11,3.52-3.87,5.63-5.63,5.98-5.28,12.66-9.85,19.35-14.07,2.46-1.76,5.63-3.17,8.44-4.92,3.52-2.11,7.74-3.87,11.61-5.63,6.33-3.17,13.01-5.28,19.35-7.39,14.42-4.22,29.55-7.04,44.67-7.39.35,0,.7,0,1.06.35h1.06s1.41,1.06,1.41,2.11c-.7,8.79-1.76,17.59-2.46,26.38-.7,6.33-1.06,13.01-1.06,19.35-.7,4.92-1.41,9.85-1.41,14.77-.35,6.68-1.06,13.37-1.41,20.05-.35,6.68-1.06,13.72-1.41,20.75,1.06,0,2.11-.35,2.81-.35,2.46,0,5.28-1.41,7.74-1.76,5.28-1.41,10.55-2.11,15.83-3.87,7.74-2.11,15.48-3.52,23.22-4.92,5.28-1.41,10.2-2.81,15.48-3.87,6.68-1.41,13.37-3.17,20.05-5.28,3.52-1.06,7.39-2.11,10.9-3.17,4.57-1.41,9.5-2.11,14.07-3.87,6.68-2.46,17.59-5.28,22.16-7.04,1.41-.7,2.46-1.41,3.52-2.11.35,0,.7,0,.7-.35,1.06-1.41,2.46-2.46,3.52-3.87,0,0,.35,0,.35-.35.35-3.52.7-6.68,1.06-9.85.7-6.33,1.76-12.31,2.81-18.29.35-2.81.7-5.98,1.41-9.15-.7-1.06-1.76-1.76-3.52-2.81-.35,0-1.06-.35-1.41-.35-.35-.35-.7-.35-1.41-.35h-1.76s-3.17-.35-4.57-.35h-12.31s-2.81-.35-4.22-.35c-2.81,0-5.63-.35-8.09,0-.35-.35-1.06-.35-1.41-.7-3.87-1.41-4.22-4.92-2.46-7.74,0-.7,0-1.06.35-1.41,1.06-1.76,3.17-1.76,4.57-2.46,7.74-2.46,12.66-1.76,18.64-3.17,1.41-.35,3.17,0,4.57,0,1.06-.35,1.76-.7,2.81-.7,1.41-.35,3.17-.7,4.92-1.06h0c2.46-1.41,1.76-1.06,3.52-1.76.35,0,1.06-.7,1.41-1.06.35-.35.7-.7.7-.7.94-1.64,1.76-3.75,2.46-6.33h-.35s0-1.06-.7-1.06-.7-.35-.7-.35c-2.11,0-3.87-.35-5.98-.7-2.46.35-4.92.7-7.04.35-1.06,0-1.76-.35-2.46-.7-.7,0-1.06-.35-1.41-.7-1.76,0-2.81-1.41-3.17-2.81-.7-1.76-.7-3.52.7-5.63.35-.7,1.06-1.41,1.76-1.76,1.41-.7,2.81-1.06,4.22-1.41,1.76-.7,3.87-1.06,5.63-1.41,2.11,0,4.22-1.06,6.33-1.41,2.46-.7,1.41-.35,2.81-.7,1.06,0,1.76-1.06,2.46-1.76,1.76-1.06,1.76-1.41,2.11-1.76.35-3.17.7-6.33,1.06-9.5.7-6.68,1.76-13.37,2.46-17.24.7-8.44,2.11-16.53,3.52-24.97.35-3.52.7-7.04,1.06-10.55,1.76-9.5,3.52-19.35,5.28-29.2,1.76-8.44,2.81-17.24,4.57-26.03.35-1.06.7-1.76,1.41-2.11,0-.7.7-1.06,1.41-1.41.7-1.06,1.76-1.06,2.81-1.41,2.46-.35,4.92-.35,7.39-.35,3.87-.35,2.11-.35,5.63-.7,1.76-.35,3.52-.7,4.92-1.06,1.06-.7,1.41-.7,4.22-2.11.7-.35,1.41-.7,1.76-1.41.35,0,.35-.35.7-.35,0,0,.35,0,.35-.7v-1.41s-.35-1.06-.35-1.76h0s-2.11-1.41-3.17-2.11c-.7,0-1.06-.35-1.76-.35-1.76-.35-3.52-1.06-5.63-1.41-3.17-.35-6.33,0-9.5-.7-8.09-1.06-12.66-9.85-2.81-13.01,5.63-2.11,11.61-1.76,17.59-2.46,3.52-.35,5.63-.7,8.44-1.41,4.22-.7,4.22-1.41,5.28-1.76.35-.7.7-1.06,1.06-1.41,1.06-1.06,1.76-2.46,2.46-3.52,0-.35.35-1.41.35-2.11v-2.46s-2.11-2.11-3.17-3.17c-1.06-.7-1.76-1.06-2.81-1.41h-.35s-.7-.7-1.06-.7c-2.11-.7-3.87-1.06-5.98-1.41h-.7c-4.57,0-9.15.35-13.72.7-1.76,0-3.17-1.41-3.87-3.17h0v-1.41s0-.7.35-1.06h0c.35-2.46,1.06-4.57,1.76-6.68,0-.7,0-1.06.35-1.76,1.41-9.15,2.11-16.53,3.52-26.03,1.06-8.09,2.11-16.53,3.52-24.97,1.41-8.09,2.81-16.18,4.57-24.27.7-4.57,1.41-9.5,2.11-14.07.7-7.39,1.76-14.77,2.46-22.16.7-3.87,1.76-8.09,2.46-11.96,1.06-8.79,2.46-17.94,3.87-26.73.7-3.87,1.06-8.79,2.11-15.13,1.41-7.74,1.76-11.26,3.17-18.99,0-1.76.7-4.22,1.06-6.33-1.06-.7-2.11-1.41-3.17-2.11-.35,0-1.06-.35-1.41-.35-.35-.35-1.41-.35-1.76-.35h-.35c-4.57-.35-8.79-.7-13.37-.7h-1.06s-1.06-.35-1.41-.35-.7,0-1.06-.35c-.7-.7-1.41-1.41-1.41-2.46,0-.7,0-1.76.7-2.46h.35s.35-1.06,1.06-1.41c0-.35,1.06-.7,1.76-.7,1.41-.7,3.17-1.41,4.22-1.76,2.46-.7,5.28-1.06,7.74-1.06,1.64,0,1.88-.12.7-.35h3.52s.35,0,.7-.35h.7l1.06-.35h.35s1.76-1.41,2.46-2.11c.7-1.06.7-2.46.7-3.17,0-.47-.23-.82-.7-1.06-.7-.35-.35,0-.7-.35-1.06-.35-.7-.35-1.41-.35-.35,0-.7-.35-1.06-.35-.7,0-1.41-.35-2.11-.35h-15.83c-.35,0-1.06,0-1.41-.35h-.35s-2.81-1.76-3.52-3.17c-.7-1.41-.7-2.46-.7-3.52.35-1.41.7-2.46,1.76-3.17,2.11-2.11,4.92-3.17,8.09-3.52,4.57-.7,11.96-2.46,17.94-3.52l.35-.7c.7-2.46,1.06-4.57,1.41-7.03h0c0-3.17,0-5.98,1.41-8.09,1.41-2.11,4.22-3.17,6.68-3.87,2.81-.7,5.98-.7,9.15-.7,2.46-.35,4.92-.7,7.74-.7,0-.35.7-.35,1.06-.35s1.06-.35,1.76-.35h.7c1.76-1.41,3.17-2.81,4.57-4.22h.35v-.7s.35-1.41.35-3.17h-.35v-.7s0-.35-.35-.7c0,0-.35-.35-.35-.7,0-.23-.7-.7-2.11-1.41h-.35s-2.81-.7-3.87-1.06c-7.04-.7-14.42-1.06-21.46-1.06-2.46,0-3.87-1.76-3.87-3.87-.7-1.41-.7-3.52,1.06-4.92,1.06-.7,2.11-.7,3.17-1.41,1.76,0,3.87-1.06,5.63-1.76,5.63-2.11,11.26-3.87,16.88-5.98,4.57-1.76,9.15-3.52,13.72-4.92,5.28-1.76,10.55-3.17,15.83-4.92,5.63-1.76,11.26-3.52,16.88-5.28,1.76-.7,3.87-1.41,5.98-1.76,1.41-.23,1.52-.35.35-.35-1.76,0,2.46-1.06,3.87-1.41.7,0,1.41,0,2.11-.7.7,0,1.76-.35,2.46-.35,1.76-.7,3.52-1.06,5.28-1.76,1.76-.35,3.52-1.06,5.28-1.76,2.11-.35,4.22-1.06,6.33-1.76,1.76-.7,3.87-1.41,5.63-1.76h.35s.35-.35,1.41-.7c1.76,0,3.17-1.06,3.87-1.06h0l.35-.35c.35,0,1.06-.35,1.76-.35,1.41-.7,2.81-1.06,4.57-1.41.7-.35,2.46-.7,3.52-1.06,1.76-.7,1.41,0,3.17-1.06,1.76-.35,2.46-.35,4.22-.7,1.06-.35,2.11.35,2.46,1.06,0,1.06-.35,1.76-.35,2.81v.7h0c-.7,7.03-2.11,13.37-3.52,20.05-1.06,3.87-1.41,8.09-2.11,11.96-.7,5.28-1.06,8.09-1.76,14.42,0,2.11-.35,3.87-.7,5.63-.35,2.81-.35,5.63-1.06,8.09-.7,2.46-1.41,4.92-1.76,7.39,0,1.06,0,3.87-1.06,7.39-1.06,4.92-2.11,10.2-2.81,15.48-1.76,8.79-2.11,12.31-2.81,17.94-1.06,5.98-1.76,11.26-2.46,15.13-.7,4.57-1.06,13.72-2.46,21.1-.35,4.22-1.41,8.79-2.11,13.01-.35,3.17-1.41,5.98-1.76,8.79h0c0,5.28-1.06,9.85-2.11,14.77,0,2.81,0,3.52-1.06,7.74-.35,2.11-.35,2.46-.35,3.17,2.46-2.46,3.52-3.87,5.98-7.03,1.76-2.81,4.22-5.28,6.33-7.74,1.41-2.11,3.17-4.57,4.92-6.68,2.11-2.46,4.92-5.28,5.98-7.03,2.11-3.17,4.22-6.68,7.04-9.85,2.81-3.52,5.98-7.03,8.79-10.9,1.41-1.76,3.87-5.98,6.33-9.15,2.46-3.52,3.87-4.57,5.63-7.39,1.76-2.46,3.52-4.57,5.28-7.03,0-.35,1.06-1.41,1.06-1.76,2.46-3.17,4.57-6.33,7.04-9.15,2.46-3.17,4.92-6.68,7.39-9.85,1.76-2.46,3.87-4.92,5.98-7.39,1.76-2.46,4.92-6.68,7.74-10.55,2.11-3.17,4.92-6.33,7.74-9.5,3.52-3.87,6.68-9.5,10.9-14.77h.35s0-1.06.7-1.41c1.06-1.06,1.76-2.11,2.81-3.17.35-.35.7-.7,1.06-1.06,1.06-1.06,1.76-2.46,3.17-4.22,1.76-2.81,3.52-4.57,4.92-6.68,2.46-3.17,4.57-6.68,7.04-9.85,2.46-3.52,4.92-6.33,6.68-8.79s4.57-7.03,5.63-7.74c.7-1.41,1.76-2.81,2.81-3.87,0-.35,1.41-2.11,1.76-2.11.23,0,.35-.23.35-.7,0-.7-.7-.35-1.06-.35-1.76-.7-6.33,0-9.85.35-3.52.35-6.68.35-10.2.7-3.17.35-6.33,1.06-9.5,1.06-1.06.35-2.11,0-3.17,0-.7,0-1.41,0-2.11-.35h-1.06c-2.11-1.41-4.57-3.52-3.17-6.33,1.06-2.46,3.52-3.52,5.63-4.22,1.76,0,3.17-1.06,4.92-1.41,5.28-1.41,10.9-2.11,16.53-3.52,3.52-.35,6.68-1.06,10.2-2.11,1.41-.35,3.17-.7,4.92-1.41,1.41-.35,3.17-.7,4.57-1.06,1.06-.35,1.76-.7,2.81-1.06.7-.35,1.41-.35,2.11-.7h1.06c.35-.35,1.06-.7,1.76-1.06.35-.35,1.06-.7,1.76-.7h.7c.35-.35,1.06-.7,1.41-1.06.35-.35,1.06-.7,1.41-1.06.35-.35.7-.7,1.41-1.06h0l.35-.7h0s.35-1.06.35-1.76h0s-.7-2.11-1.41-3.17h-1.76s-3.17-.35-6.33-.35h-8.79s-2.81,0-3.87-.35c-1.76-.7-3.17-2.46-2.11-4.22,1.41-2.11,3.87-3.17,5.98-4.57s4.57-2.81,6.68-4.22c3.52-2.11,7.04-3.87,10.55-6.33,4.92-3.17,9.85-6.68,15.13-9.85.35-.35.7-.35,1.06-.35h4.57c3.17-.35,5.98-1.06,8.79-1.41,3.17-.7,8.09-1.06,9.5-1.06,2.11-.7,4.57-1.06,7.04-1.41,7.39-1.41,15.13-1.76,22.51-2.81,7.74-.7,15.48-1.06,23.22-2.11,2.46-.35,5.28-.7,7.74-.7,1.76-.35,3.52-.7,5.28-1.06,3.52,0,7.03-.35,10.55-.7,3.87-.35,5.28-.35,9.15-1.06,4.22-.35,8.79-.35,13.37-1.06,3.87-.35,7.74-.35,11.61-.7,2.81-.35,5.63-.7,8.44,0,1.76-1.06,4.22.35,4.22,2.81,0,1.76-1.06,2.81-1.76,4.22-.7.7-1.41,1.41-2.11,2.46-.7,1.06-1.76,2.11-2.81,3.52l-1.06,1.06c-3.17,4.57-6.33,9.15-9.85,13.37-1.06,1.76-2.46,3.17-3.52,4.57-1.41,2.11-3.17,3.87-4.57,5.63-2.11,2.11-3.87,4.57-5.63,6.68,0,0-.35,0-.35.35-7.74,9.5-12.66,15.13-19.7,25.33-3.87,4.92-7.04,10.2-11.26,15.13-3.17,4.22-6.68,8.09-10.2,12.66-3.17,4.22-7.04,8.44-10.55,12.66-4.57,5.98-7.04,9.5-12.31,16.18-8.79,10.2-17.59,20.4-25.68,30.95-9.85,11.26-19.35,22.86-28.49,34.47-8.44,10.2-15.83,20.4-25.68,33.42-.7,1.06-1.41,2.11-2.11,2.81,0,.7-1.06,1.41-1.41,2.11.35.7.35,1.41.7,2.46,1.41,4.57,2.46,9.15,3.87,13.72.35,1.06,1.06,1.76,1.41,2.81,2.46,5.98,4.57,11.96,7.04,17.59,4.92,11.26,8.44,22.51,11.96,34.12.7.7,1.06,1.76,1.41,2.46.35,1.06.7,1.76,1.06,2.46v1.06c0,.35.35.7.35,1.06,1.41,3.87,3.17,7.74,4.57,11.96.35,0,.35.35.35.35,0,.35,0,.7.35.7,1.76,5.28,3.87,10.55,5.28,14.07,1.06,1.41,1.41,3.52,2.46,5.63,4.57,13.72,8.44,21.81,14.42,35.17,2.11,5.28,4.22,10.9,6.33,16.18,2.11,5.63,4.22,10.9,5.98,16.53.35,1.06.7,1.76.7,2.81.35.7.7,1.41.7,2.11,4.22,8.44,6.68,14.77,11.26,24.62.7,2.46,1.76,5.28,2.81,7.74.35,1.41,1.06,2.46,1.41,3.87,4.57,11.26,8.79,22.51,11.96,34.12,2.81,6.68,5.28,13.37,8.09,20.05,1.41,3.52,2.81,7.04,4.22,10.2,1.06,2.46,2.11,4.57,2.46,7.39,1.41,5.28,3.17,10.55,4.92,15.83.7,1.06,1.06,2.46,1.41,3.87,0,.35,0,.7.35,1.06,0,.35.35.7.35,1.06,1.06,2.11,2.11,4.22,3.17,6.33,0,.35,0,1.06.7,1.41,1.41,3.17,2.81,5.98,3.87,9.15h0s.7,1.76.7,2.81c0,.35,0,.7-.35,1.06.7,1.76,1.41,3.87,2.46,5.63,4.57,12.66,9.15,25.33,13.01,38.34.7,2.11,1.41,4.22,1.76,6.33,1.06,2.11,1.76,4.22,2.46,6.33,1.76,4.22,3.52,8.44,4.92,13.01.35.7.7,1.41,1.06,2.11,5.63,13.72,10.55,27.44,15.83,41.51,4.22,10.9,7.03,17.59,11.61,28.49,2.81,5.63,4.92,11.61,7.03,17.59,3.87,9.85,7.74,20.05,11.96,29.9,2.46,6.33,4.92,12.66,7.39,18.99,2.11,5.28,4.57,10.9,7.03,16.18,1.41,3.17,2.46,6.33,3.87,9.15,1.41,3.17,3.17,5.98,4.92,9.15,4.57,9.15,9.5,18.64,13.01,28.14.7,1.76,0,3.17-1.06,4.22,0,0,0-.35-.7-.35v.7l.7-.35c1.41,1.06,2.11,2.81,1.41,4.57l.7-3.52Z"/>
    </g>
  </g>
</svg>