<svg width="52" height="52" viewBox="0 0 52 52" fill="none" xmlns="http://www.w3.org/2000/svg">
<path d="M40.56 8.66662H11.635C11.2622 8.64916 10.8896 8.70538 10.5385 8.83211C10.1874 8.95884 9.86482 9.15356 9.58909 9.40511C9.31338 9.65668 9.08997 9.96017 8.9317 10.2982C8.77342 10.6362 8.68336 11.0021 8.66667 11.375V40.365C8.68851 41.1452 9.00827 41.8878 9.56027 42.4396C10.1123 42.9917 10.8547 43.3115 11.635 43.3334H40.56C41.3186 43.2996 42.0338 42.9698 42.5523 42.4149C43.0707 41.86 43.3511 41.1242 43.3333 40.365V11.375C43.3396 11.012 43.2716 10.6517 43.1336 10.316C42.9956 9.98032 42.7904 9.67635 42.5306 9.42275C42.271 9.16916 41.9623 8.9713 41.6234 8.84128C41.2845 8.71126 40.9227 8.65182 40.56 8.66662ZM19.5 37.57H14.4517V22.1217H19.5V37.57ZM17.095 19.7816C16.7427 19.7939 16.3917 19.7332 16.064 19.6033C15.7363 19.4735 15.439 19.2772 15.1908 19.027C14.9426 18.7767 14.7487 18.4778 14.6216 18.149C14.4944 17.8203 14.4365 17.4688 14.4517 17.1166C14.4361 16.7606 14.4951 16.4053 14.6249 16.0735C14.7547 15.7417 14.9524 15.4406 15.2054 15.1897C15.4584 14.9388 15.761 14.7435 16.0939 14.6164C16.4267 14.4893 16.7825 14.4332 17.1383 14.4516C17.4906 14.4394 17.8416 14.5 18.1693 14.6299C18.497 14.7598 18.7943 14.956 19.0426 15.2063C19.2908 15.4566 19.4846 15.7555 19.6118 16.0842C19.739 16.413 19.7968 16.7645 19.7817 17.1166C19.7973 17.4726 19.7383 17.8279 19.6084 18.1597C19.4786 18.4916 19.2809 18.7926 19.028 19.0435C18.775 19.2945 18.4724 19.4898 18.1395 19.6168C17.8066 19.744 17.4508 19.8001 17.095 19.7816ZM37.57 37.57H32.5V29.12C32.5 27.105 31.785 25.7184 29.9867 25.7184C29.4281 25.7231 28.8845 25.9006 28.4308 26.2264C27.9769 26.5523 27.635 27.0106 27.4517 27.5384C27.3108 27.934 27.2519 28.3541 27.2783 28.7734V37.57H22.295V22.1217H27.2783V24.2884C27.7214 23.4743 28.3807 22.7988 29.1837 22.336C29.9867 21.8734 30.9019 21.6417 31.8283 21.6666C35.1 21.6666 37.57 23.8334 37.57 28.4484V37.57Z" fill="#4D4889"/>
</svg>
