<svg width="38" height="38" viewBox="0 0 38 38" fill="none" xmlns="http://www.w3.org/2000/svg">
<path d="M20.5021 18.7167C20.0293 18.8746 19.525 18.9623 19 18.9623C18.475 18.9623 17.9706 18.8746 17.4978 18.7167C14.0636 19.2807 12.2662 21.8048 12.2662 24.8678H19H25.7337C25.7337 21.8048 23.9367 19.2807 20.5021 18.7167Z" fill="#4D4889"/>
<path d="M19 17.871C21.0358 17.871 22.6855 16.2203 22.6855 14.1848V13.1393C22.6855 11.1038 21.0358 9.45367 19 9.45367C16.9642 9.45367 15.3144 11.1038 15.3144 13.1393V14.1848C15.3144 16.2203 16.9642 17.871 19 17.871Z" fill="#4D4889"/>
<path d="M28.0844 0H9.91428C6.40017 0 3.54022 2.86054 3.54022 6.37532V31.626C3.54022 35.1408 6.40017 38 9.91428 38H25.1807H26.1585L26.8501 37.3097L33.7694 30.3904L34.4598 29.6994V28.7216V6.37532C34.4598 2.86054 31.5998 0 28.0844 0ZM32.0994 28.7215H28.526C26.6793 28.7215 25.1806 30.2195 25.1806 32.0668V35.6396H9.91428C7.69766 35.6396 5.90068 33.842 5.90068 31.626V6.37532C5.90068 4.15811 7.69766 2.36038 9.91428 2.36038H28.0844C30.3017 2.36038 32.0993 4.15811 32.0993 6.37532V28.7215H32.0994Z" fill="#4D4889"/>
</svg>
