<svg width="91" height="100" viewBox="0 0 91 100" fill="none" xmlns="http://www.w3.org/2000/svg">
<path d="M47.6328 22.6075C47.1758 22.6075 46.9472 22.3145 46.833 21.8541C45.6524 14.8646 45.7285 14.6973 39.1015 13.3161C38.6446 13.2325 38.3779 12.9395 38.3779 12.4371C38.3779 11.935 38.6446 11.642 39.1015 11.5582C45.6904 10.0936 45.5 9.92608 46.833 3.02036C46.9472 2.56 47.1758 2.26697 47.6328 2.26697C48.0899 2.26697 48.3184 2.56 48.4326 3.02036C49.7656 9.92608 49.5371 10.0936 56.164 11.5582C56.583 11.642 56.8877 11.935 56.8877 12.4371C56.8877 12.9395 56.583 13.2325 56.164 13.3161C49.5371 14.7811 49.6133 14.8646 48.4326 21.8541C48.3184 22.3145 48.0899 22.6075 47.6328 22.6075ZM66.0663 51.4021C65.3427 51.4021 64.8476 50.8998 64.7715 50.1466C63.4003 38.9718 63.0576 38.9718 52.5458 36.7538C51.8602 36.628 51.3653 36.1259 51.3653 35.3307C51.3653 34.5773 51.8602 34.0332 52.5458 33.9077C63.0576 32.3173 63.4385 31.9405 64.7715 20.5566C64.8476 19.8034 65.3427 19.2593 66.0663 19.2593C66.7519 19.2593 67.247 19.8034 67.3232 20.5986C68.58 31.815 69.1133 31.7732 79.5488 33.9077C80.2344 34.0752 80.7295 34.5773 80.7295 35.3307C80.7295 36.1677 80.2344 36.628 79.3965 36.7538C69.0371 38.5952 68.58 38.8882 67.3232 50.0629C67.247 50.8998 66.7519 51.4021 66.0663 51.4021ZM40.2441 97.733C39.2538 97.733 38.5302 96.9379 38.3399 95.8079C35.6357 72.8725 32.7031 69.3988 12.0606 66.8875C10.9941 66.762 10.2705 65.883 10.2705 64.795C10.2705 63.7068 10.9941 62.8696 12.0606 62.7023C32.7031 60.1911 35.6357 56.7173 38.3399 33.7821C38.5302 32.6521 39.2538 31.8988 40.2441 31.8988C41.2344 31.8988 41.958 32.6521 42.1102 33.7821C44.8144 56.7173 47.7851 60.1911 68.3897 62.7023C69.4941 62.8696 70.2177 63.7068 70.2177 64.795C70.2177 65.883 69.4941 66.762 68.3897 66.8875C47.8232 69.8591 44.9668 72.9145 42.1102 95.8079C41.958 96.9379 41.2344 97.733 40.2441 97.733Z" fill="#4D4889"/>
</svg>
